<svg width="571" height="347" viewBox="0 0 571 347" fill="none" xmlns="http://www.w3.org/2000/svg">
<rect x="1" y="1" width="569" height="345" rx="24" stroke="#FFCC00" stroke-width="2"/>
<path d="M31.8776 28L36.8436 17.0157L37.2054 17.5419H30.0853L30.6937 16.9663V19.696H29.5262V16.4895H37.9782V17.3281L33.1602 28H31.8776ZM42.8671 28.0987C42.0449 28.0987 41.2611 27.9671 40.5157 27.704C39.7702 27.43 39.1782 27.0682 38.7397 26.6187L39.3153 25.6815C39.677 26.0651 40.1703 26.383 40.7952 26.6352C41.431 26.8873 42.1162 27.0134 42.8506 27.0134C43.8263 27.0134 44.5663 26.7996 45.0705 26.3721C45.5858 25.9336 45.8434 25.3635 45.8434 24.6619C45.8434 24.1686 45.7228 23.7466 45.4816 23.3958C45.2514 23.034 44.8568 22.7545 44.2977 22.5572C43.7386 22.3598 42.9712 22.2612 41.9956 22.2612H39.5455L40.1375 16.4895H46.4354V17.5419H40.6143L41.2227 16.9663L40.713 21.8008L40.1046 21.2088H42.2587C43.4207 21.2088 44.3525 21.3513 45.0541 21.6363C45.7557 21.9214 46.26 22.3215 46.5669 22.8367C46.8848 23.341 47.0438 23.933 47.0438 24.6126C47.0438 25.2594 46.8903 25.8514 46.5833 26.3885C46.2764 26.9147 45.816 27.3313 45.2021 27.6382C44.5882 27.9452 43.8099 28.0987 42.8671 28.0987ZM53.1346 28.0987C52.2466 28.0987 51.4573 27.8685 50.7667 27.408C50.0761 26.9366 49.5334 26.2679 49.1388 25.4019C48.7441 24.5249 48.5468 23.4725 48.5468 22.2447C48.5468 21.017 48.7441 19.97 49.1388 19.104C49.5334 18.227 50.0761 17.5583 50.7667 17.0979C51.4573 16.6265 52.2466 16.3908 53.1346 16.3908C54.0225 16.3908 54.8118 16.6265 55.5025 17.0979C56.1931 17.5583 56.7357 18.227 57.1304 19.104C57.536 19.97 57.7388 21.017 57.7388 22.2447C57.7388 23.4725 57.536 24.5249 57.1304 25.4019C56.7357 26.2679 56.1931 26.9366 55.5025 27.408C54.8118 27.8685 54.0225 28.0987 53.1346 28.0987ZM53.1346 27.0134C53.8142 27.0134 54.4062 26.8325 54.9105 26.4707C55.4148 26.098 55.8094 25.5609 56.0944 24.8593C56.3794 24.1467 56.522 23.2752 56.522 22.2447C56.522 21.2143 56.3794 20.3482 56.0944 19.6467C55.8094 18.9341 55.4148 18.3969 54.9105 18.0352C54.4062 17.6625 53.8142 17.4761 53.1346 17.4761C52.4768 17.4761 51.8903 17.6625 51.3751 18.0352C50.8599 18.3969 50.4597 18.9341 50.1747 19.6467C49.8897 20.3482 49.7472 21.2143 49.7472 22.2447C49.7472 23.2752 49.8897 24.1467 50.1747 24.8593C50.4597 25.5609 50.8599 26.098 51.3751 26.4707C51.8903 26.8325 52.4768 27.0134 53.1346 27.0134ZM64.022 28.0987C63.1341 28.0987 62.3448 27.8685 61.6542 27.408C60.9635 26.9366 60.4209 26.2679 60.0262 25.4019C59.6316 24.5249 59.4343 23.4725 59.4343 22.2447C59.4343 21.017 59.6316 19.97 60.0262 19.104C60.4209 18.227 60.9635 17.5583 61.6542 17.0979C62.3448 16.6265 63.1341 16.3908 64.022 16.3908C64.91 16.3908 65.6993 16.6265 66.3899 17.0979C67.0805 17.5583 67.6232 18.227 68.0178 19.104C68.4234 19.97 68.6262 21.017 68.6262 22.2447C68.6262 23.4725 68.4234 24.5249 68.0178 25.4019C67.6232 26.2679 67.0805 26.9366 66.3899 27.408C65.6993 27.8685 64.91 28.0987 64.022 28.0987ZM64.022 27.0134C64.7017 27.0134 65.2937 26.8325 65.7979 26.4707C66.3022 26.098 66.6969 25.5609 66.9819 24.8593C67.2669 24.1467 67.4094 23.2752 67.4094 22.2447C67.4094 21.2143 67.2669 20.3482 66.9819 19.6467C66.6969 18.9341 66.3022 18.3969 65.7979 18.0352C65.2937 17.6625 64.7017 17.4761 64.022 17.4761C63.3643 17.4761 62.7778 17.6625 62.2626 18.0352C61.7473 18.3969 61.3472 18.9341 61.0622 19.6467C60.7772 20.3482 60.6347 21.2143 60.6347 22.2447C60.6347 23.2752 60.7772 24.1467 61.0622 24.8593C61.3472 25.5609 61.7473 26.098 62.2626 26.4707C62.7778 26.8325 63.3643 27.0134 64.022 27.0134ZM74.9095 28.0987C74.0215 28.0987 73.2322 27.8685 72.5416 27.408C71.851 26.9366 71.3083 26.2679 70.9137 25.4019C70.519 24.5249 70.3217 23.4725 70.3217 22.2447C70.3217 21.017 70.519 19.97 70.9137 19.104C71.3083 18.227 71.851 17.5583 72.5416 17.0979C73.2322 16.6265 74.0215 16.3908 74.9095 16.3908C75.7974 16.3908 76.5867 16.6265 77.2774 17.0979C77.968 17.5583 78.5106 18.227 78.9053 19.104C79.3109 19.97 79.5137 21.017 79.5137 22.2447C79.5137 23.4725 79.3109 24.5249 78.9053 25.4019C78.5106 26.2679 77.968 26.9366 77.2774 27.408C76.5867 27.8685 75.7974 28.0987 74.9095 28.0987ZM74.9095 27.0134C75.5892 27.0134 76.1811 26.8325 76.6854 26.4707C77.1897 26.098 77.5843 25.5609 77.8693 24.8593C78.1544 24.1467 78.2969 23.2752 78.2969 22.2447C78.2969 21.2143 78.1544 20.3482 77.8693 19.6467C77.5843 18.9341 77.1897 18.3969 76.6854 18.0352C76.1811 17.6625 75.5892 17.4761 74.9095 17.4761C74.2517 17.4761 73.6653 17.6625 73.15 18.0352C72.6348 18.3969 72.2347 18.9341 71.9496 19.6467C71.6646 20.3482 71.5221 21.2143 71.5221 22.2447C71.5221 23.2752 71.6646 24.1467 71.9496 24.8593C72.2347 25.5609 72.6348 26.098 73.15 26.4707C73.6653 26.8325 74.2517 27.0134 74.9095 27.0134ZM81.9205 28.0822C81.6793 28.0822 81.471 27.9945 81.2956 27.8191C81.1312 27.6437 81.049 27.43 81.049 27.1778C81.049 26.9147 81.1312 26.701 81.2956 26.5365C81.471 26.3721 81.6793 26.2899 81.9205 26.2899C82.1617 26.2899 82.3645 26.3721 82.5289 26.5365C82.7043 26.701 82.792 26.9147 82.792 27.1778C82.792 27.43 82.7043 27.6437 82.5289 27.8191C82.3645 27.9945 82.1617 28.0822 81.9205 28.0822ZM88.9283 28.0987C88.0403 28.0987 87.2511 27.8685 86.5604 27.408C85.8698 26.9366 85.3272 26.2679 84.9325 25.4019C84.5379 24.5249 84.3405 23.4725 84.3405 22.2447C84.3405 21.017 84.5379 19.97 84.9325 19.104C85.3272 18.227 85.8698 17.5583 86.5604 17.0979C87.2511 16.6265 88.0403 16.3908 88.9283 16.3908C89.8163 16.3908 90.6055 16.6265 91.2962 17.0979C91.9868 17.5583 92.5294 18.227 92.9241 19.104C93.3297 19.97 93.5325 21.017 93.5325 22.2447C93.5325 23.4725 93.3297 24.5249 92.9241 25.4019C92.5294 26.2679 91.9868 26.9366 91.2962 27.408C90.6055 27.8685 89.8163 28.0987 88.9283 28.0987ZM88.9283 27.0134C89.608 27.0134 90.1999 26.8325 90.7042 26.4707C91.2085 26.098 91.6031 25.5609 91.8881 24.8593C92.1732 24.1467 92.3157 23.2752 92.3157 22.2447C92.3157 21.2143 92.1732 20.3482 91.8881 19.6467C91.6031 18.9341 91.2085 18.3969 90.7042 18.0352C90.1999 17.6625 89.608 17.4761 88.9283 17.4761C88.2706 17.4761 87.6841 17.6625 87.1688 18.0352C86.6536 18.3969 86.2535 18.9341 85.9685 19.6467C85.6834 20.3482 85.5409 21.2143 85.5409 22.2447C85.5409 23.2752 85.6834 24.1467 85.9685 24.8593C86.2535 25.5609 86.6536 26.098 87.1688 26.4707C87.6841 26.8325 88.2706 27.0134 88.9283 27.0134ZM99.8158 28.0987C98.9278 28.0987 98.1385 27.8685 97.4479 27.408C96.7572 26.9366 96.2146 26.2679 95.82 25.4019C95.4253 24.5249 95.228 23.4725 95.228 22.2447C95.228 21.017 95.4253 19.97 95.82 19.104C96.2146 18.227 96.7572 17.5583 97.4479 17.0979C98.1385 16.6265 98.9278 16.3908 99.8158 16.3908C100.704 16.3908 101.493 16.6265 102.184 17.0979C102.874 17.5583 103.417 18.227 103.812 19.104C104.217 19.97 104.42 21.017 104.42 22.2447C104.42 23.4725 104.217 24.5249 103.812 25.4019C103.417 26.2679 102.874 26.9366 102.184 27.408C101.493 27.8685 100.704 28.0987 99.8158 28.0987ZM99.8158 27.0134C100.495 27.0134 101.087 26.8325 101.592 26.4707C102.096 26.098 102.491 25.5609 102.776 24.8593C103.061 24.1467 103.203 23.2752 103.203 22.2447C103.203 21.2143 103.061 20.3482 102.776 19.6467C102.491 18.9341 102.096 18.3969 101.592 18.0352C101.087 17.6625 100.495 17.4761 99.8158 17.4761C99.158 17.4761 98.5715 17.6625 98.0563 18.0352C97.5411 18.3969 97.1409 18.9341 96.8559 19.6467C96.5709 20.3482 96.4284 21.2143 96.4284 22.2447C96.4284 23.2752 96.5709 24.1467 96.8559 24.8593C97.1409 25.5609 97.5411 26.098 98.0563 26.4707C98.5715 26.8325 99.158 27.0134 99.8158 27.0134Z" fill="#C1C9D5"/>
<rect x="122.443" y="21" width="422" height="2" fill="#1C3554"/>
<path d="M31.8776 88.6357L36.8436 77.6514L37.2054 78.1776H30.0853L30.6937 77.6021V80.3317H29.5262V77.1252H37.9782V77.9638L33.1602 88.6357H31.8776ZM43.8048 88.7344C42.9168 88.7344 42.1275 88.5042 41.4369 88.0438C40.7463 87.5724 40.2036 86.9037 39.809 86.0377C39.4143 85.1607 39.217 84.1083 39.217 82.8805C39.217 81.6527 39.4143 80.6058 39.809 79.7398C40.2036 78.8628 40.7463 78.1941 41.4369 77.7336C42.1275 77.2623 42.9168 77.0266 43.8048 77.0266C44.6927 77.0266 45.482 77.2623 46.1726 77.7336C46.8633 78.1941 47.4059 78.8628 47.8006 79.7398C48.2062 80.6058 48.409 81.6527 48.409 82.8805C48.409 84.1083 48.2062 85.1607 47.8006 86.0377C47.4059 86.9037 46.8633 87.5724 46.1726 88.0438C45.482 88.5042 44.6927 88.7344 43.8048 88.7344ZM43.8048 87.6491C44.4844 87.6491 45.0764 87.4682 45.5807 87.1065C46.0849 86.7338 46.4796 86.1966 46.7646 85.495C47.0496 84.7825 47.1921 83.9109 47.1921 82.8805C47.1921 81.85 47.0496 80.984 46.7646 80.2824C46.4796 79.5698 46.0849 79.0327 45.5807 78.6709C45.0764 78.2982 44.4844 78.1118 43.8048 78.1118C43.147 78.1118 42.5605 78.2982 42.0453 78.6709C41.5301 79.0327 41.1299 79.5698 40.8449 80.2824C40.5599 80.984 40.4174 81.85 40.4174 82.8805C40.4174 83.9109 40.5599 84.7825 40.8449 85.495C41.1299 86.1966 41.5301 86.7338 42.0453 87.1065C42.5605 87.4682 43.147 87.6491 43.8048 87.6491ZM54.6922 88.7344C53.8043 88.7344 53.015 88.5042 52.3243 88.0438C51.6337 87.5724 51.0911 86.9037 50.6964 86.0377C50.3018 85.1607 50.1045 84.1083 50.1045 82.8805C50.1045 81.6527 50.3018 80.6058 50.6964 79.7398C51.0911 78.8628 51.6337 78.1941 52.3243 77.7336C53.015 77.2623 53.8043 77.0266 54.6922 77.0266C55.5802 77.0266 56.3695 77.2623 57.0601 77.7336C57.7507 78.1941 58.2934 78.8628 58.688 79.7398C59.0936 80.6058 59.2964 81.6527 59.2964 82.8805C59.2964 84.1083 59.0936 85.1607 58.688 86.0377C58.2934 86.9037 57.7507 87.5724 57.0601 88.0438C56.3695 88.5042 55.5802 88.7344 54.6922 88.7344ZM54.6922 87.6491C55.3719 87.6491 55.9639 87.4682 56.4681 87.1065C56.9724 86.7338 57.367 86.1966 57.6521 85.495C57.9371 84.7825 58.0796 83.9109 58.0796 82.8805C58.0796 81.85 57.9371 80.984 57.6521 80.2824C57.367 79.5698 56.9724 79.0327 56.4681 78.6709C55.9639 78.2982 55.3719 78.1118 54.6922 78.1118C54.0345 78.1118 53.448 78.2982 52.9328 78.6709C52.4175 79.0327 52.0174 79.5698 51.7324 80.2824C51.4474 80.984 51.3048 81.85 51.3048 82.8805C51.3048 83.9109 51.4474 84.7825 51.7324 85.495C52.0174 86.1966 52.4175 86.7338 52.9328 87.1065C53.448 87.4682 54.0345 87.6491 54.6922 87.6491ZM65.5797 88.7344C64.6917 88.7344 63.9024 88.5042 63.2118 88.0438C62.5212 87.5724 61.9785 86.9037 61.5839 86.0377C61.1892 85.1607 60.9919 84.1083 60.9919 82.8805C60.9919 81.6527 61.1892 80.6058 61.5839 79.7398C61.9785 78.8628 62.5212 78.1941 63.2118 77.7336C63.9024 77.2623 64.6917 77.0266 65.5797 77.0266C66.4676 77.0266 67.2569 77.2623 67.9476 77.7336C68.6382 78.1941 69.1808 78.8628 69.5755 79.7398C69.9811 80.6058 70.1839 81.6527 70.1839 82.8805C70.1839 84.1083 69.9811 85.1607 69.5755 86.0377C69.1808 86.9037 68.6382 87.5724 67.9476 88.0438C67.2569 88.5042 66.4676 88.7344 65.5797 88.7344ZM65.5797 87.6491C66.2593 87.6491 66.8513 87.4682 67.3556 87.1065C67.8599 86.7338 68.2545 86.1966 68.5395 85.495C68.8245 84.7825 68.9671 83.9109 68.9671 82.8805C68.9671 81.85 68.8245 80.984 68.5395 80.2824C68.2545 79.5698 67.8599 79.0327 67.3556 78.6709C66.8513 78.2982 66.2593 78.1118 65.5797 78.1118C64.9219 78.1118 64.3354 78.2982 63.8202 78.6709C63.305 79.0327 62.9049 79.5698 62.6198 80.2824C62.3348 80.984 62.1923 81.85 62.1923 82.8805C62.1923 83.9109 62.3348 84.7825 62.6198 85.495C62.9049 86.1966 63.305 86.7338 63.8202 87.1065C64.3354 87.4682 64.9219 87.6491 65.5797 87.6491ZM76.4671 88.7344C75.5792 88.7344 74.7899 88.5042 74.0993 88.0438C73.4086 87.5724 72.866 86.9037 72.4713 86.0377C72.0767 85.1607 71.8794 84.1083 71.8794 82.8805C71.8794 81.6527 72.0767 80.6058 72.4713 79.7398C72.866 78.8628 73.4086 78.1941 74.0993 77.7336C74.7899 77.2623 75.5792 77.0266 76.4671 77.0266C77.3551 77.0266 78.1444 77.2623 78.835 77.7336C79.5256 78.1941 80.0683 78.8628 80.4629 79.7398C80.8685 80.6058 81.0713 81.6527 81.0713 82.8805C81.0713 84.1083 80.8685 85.1607 80.4629 86.0377C80.0683 86.9037 79.5256 87.5724 78.835 88.0438C78.1444 88.5042 77.3551 88.7344 76.4671 88.7344ZM76.4671 87.6491C77.1468 87.6491 77.7388 87.4682 78.243 87.1065C78.7473 86.7338 79.142 86.1966 79.427 85.495C79.712 84.7825 79.8545 83.9109 79.8545 82.8805C79.8545 81.85 79.712 80.984 79.427 80.2824C79.142 79.5698 78.7473 79.0327 78.243 78.6709C77.7388 78.2982 77.1468 78.1118 76.4671 78.1118C75.8094 78.1118 75.2229 78.2982 74.7077 78.6709C74.1924 79.0327 73.7923 79.5698 73.5073 80.2824C73.2223 80.984 73.0798 81.85 73.0798 82.8805C73.0798 83.9109 73.2223 84.7825 73.5073 85.495C73.7923 86.1966 74.1924 86.7338 74.7077 87.1065C75.2229 87.4682 75.8094 87.6491 76.4671 87.6491ZM83.4781 88.718C83.237 88.718 83.0287 88.6303 82.8533 88.4549C82.6889 88.2795 82.6066 88.0657 82.6066 87.8136C82.6066 87.5505 82.6889 87.3367 82.8533 87.1723C83.0287 87.0078 83.237 86.9256 83.4781 86.9256C83.7193 86.9256 83.9221 87.0078 84.0866 87.1723C84.262 87.3367 84.3497 87.5505 84.3497 87.8136C84.3497 88.0657 84.262 88.2795 84.0866 88.4549C83.9221 88.6303 83.7193 88.718 83.4781 88.718ZM90.4859 88.7344C89.598 88.7344 88.8087 88.5042 88.1181 88.0438C87.4274 87.5724 86.8848 86.9037 86.4902 86.0377C86.0955 85.1607 85.8982 84.1083 85.8982 82.8805C85.8982 81.6527 86.0955 80.6058 86.4902 79.7398C86.8848 78.8628 87.4274 78.1941 88.1181 77.7336C88.8087 77.2623 89.598 77.0266 90.4859 77.0266C91.3739 77.0266 92.1632 77.2623 92.8538 77.7336C93.5445 78.1941 94.0871 78.8628 94.4817 79.7398C94.8873 80.6058 95.0902 81.6527 95.0902 82.8805C95.0902 84.1083 94.8873 85.1607 94.4817 86.0377C94.0871 86.9037 93.5445 87.5724 92.8538 88.0438C92.1632 88.5042 91.3739 88.7344 90.4859 88.7344ZM90.4859 87.6491C91.1656 87.6491 91.7576 87.4682 92.2619 87.1065C92.7661 86.7338 93.1608 86.1966 93.4458 85.495C93.7308 84.7825 93.8733 83.9109 93.8733 82.8805C93.8733 81.85 93.7308 80.984 93.4458 80.2824C93.1608 79.5698 92.7661 79.0327 92.2619 78.6709C91.7576 78.2982 91.1656 78.1118 90.4859 78.1118C89.8282 78.1118 89.2417 78.2982 88.7265 78.6709C88.2112 79.0327 87.8111 79.5698 87.5261 80.2824C87.2411 80.984 87.0986 81.85 87.0986 82.8805C87.0986 83.9109 87.2411 84.7825 87.5261 85.495C87.8111 86.1966 88.2112 86.7338 88.7265 87.1065C89.2417 87.4682 89.8282 87.6491 90.4859 87.6491ZM101.373 88.7344C100.485 88.7344 99.6962 88.5042 99.0055 88.0438C98.3149 87.5724 97.7723 86.9037 97.3776 86.0377C96.983 85.1607 96.7856 84.1083 96.7856 82.8805C96.7856 81.6527 96.983 80.6058 97.3776 79.7398C97.7723 78.8628 98.3149 78.1941 99.0055 77.7336C99.6962 77.2623 100.485 77.0266 101.373 77.0266C102.261 77.0266 103.051 77.2623 103.741 77.7336C104.432 78.1941 104.975 78.8628 105.369 79.7398C105.775 80.6058 105.978 81.6527 105.978 82.8805C105.978 84.1083 105.775 85.1607 105.369 86.0377C104.975 86.9037 104.432 87.5724 103.741 88.0438C103.051 88.5042 102.261 88.7344 101.373 88.7344ZM101.373 87.6491C102.053 87.6491 102.645 87.4682 103.149 87.1065C103.654 86.7338 104.048 86.1966 104.333 85.495C104.618 84.7825 104.761 83.9109 104.761 82.8805C104.761 81.85 104.618 80.984 104.333 80.2824C104.048 79.5698 103.654 79.0327 103.149 78.6709C102.645 78.2982 102.053 78.1118 101.373 78.1118C100.716 78.1118 100.129 78.2982 99.6139 78.6709C99.0987 79.0327 98.6986 79.5698 98.4136 80.2824C98.1285 80.984 97.986 81.85 97.986 82.8805C97.986 83.9109 98.1285 84.7825 98.4136 85.495C98.6986 86.1966 99.0987 86.7338 99.6139 87.1065C100.129 87.4682 100.716 87.6491 101.373 87.6491Z" fill="#C1C9D5"/>
<rect x="123.443" y="82.1357" width="422" height="1" fill="#1C3554"/>
<path d="M34.5744 149.37C33.5549 149.37 32.6943 149.145 31.9927 148.696C31.2911 148.236 30.7595 147.578 30.3977 146.723C30.0359 145.857 29.8551 144.821 29.8551 143.615C29.8551 142.31 30.0743 141.22 30.5128 140.343C30.9623 139.455 31.5816 138.786 32.3709 138.336C33.1602 137.887 34.0756 137.662 35.117 137.662C35.6323 137.662 36.1256 137.712 36.5969 137.81C37.0683 137.909 37.4849 138.068 37.8467 138.287L37.3698 139.241C37.0738 139.044 36.734 138.907 36.3503 138.83C35.9666 138.742 35.561 138.698 35.1335 138.698C33.8947 138.698 32.9026 139.093 32.1572 139.882C31.4227 140.671 31.0554 141.85 31.0554 143.418C31.0554 143.659 31.0664 143.96 31.0883 144.322C31.1212 144.673 31.187 145.024 31.2857 145.374L30.8746 145.062C30.9952 144.492 31.2308 144.01 31.5816 143.615C31.9324 143.209 32.3709 142.902 32.8971 142.694C33.4233 142.486 33.9989 142.382 34.6237 142.382C35.3911 142.382 36.0653 142.524 36.6463 142.809C37.2273 143.094 37.6822 143.494 38.0111 144.01C38.34 144.525 38.5044 145.133 38.5044 145.835C38.5044 146.547 38.3345 147.172 37.9946 147.709C37.6548 148.236 37.1834 148.647 36.5805 148.943C35.9885 149.228 35.3198 149.37 34.5744 149.37ZM34.525 148.367C35.0732 148.367 35.5555 148.268 35.9721 148.071C36.3996 147.863 36.734 147.572 36.9751 147.2C37.2163 146.816 37.3369 146.372 37.3369 145.868C37.3369 145.111 37.0738 144.508 36.5476 144.059C36.0324 143.609 35.3308 143.385 34.4428 143.385C33.8509 143.385 33.3356 143.494 32.8971 143.714C32.4586 143.933 32.1133 144.234 31.8612 144.618C31.6091 144.991 31.483 145.418 31.483 145.901C31.483 146.317 31.5981 146.717 31.8283 147.101C32.0585 147.474 32.3983 147.781 32.8478 148.022C33.3082 148.252 33.8673 148.367 34.525 148.367ZM43.5094 149.37C42.6872 149.37 41.9034 149.239 41.158 148.975C40.4125 148.701 39.8206 148.34 39.3821 147.89L39.9576 146.953C40.3194 147.337 40.8127 147.655 41.4375 147.907C42.0733 148.159 42.7585 148.285 43.493 148.285C44.4686 148.285 45.2086 148.071 45.7129 147.644C46.2281 147.205 46.4857 146.635 46.4857 145.933C46.4857 145.44 46.3651 145.018 46.1239 144.667C45.8937 144.306 45.4991 144.026 44.94 143.829C44.3809 143.631 43.6136 143.533 42.6379 143.533H40.1878L40.7798 137.761H47.0777V138.813H41.2566L41.8651 138.238L41.3553 143.072L40.7469 142.48H42.901C44.063 142.48 44.9948 142.623 45.6964 142.908C46.398 143.193 46.9023 143.593 47.2092 144.108C47.5271 144.612 47.6861 145.204 47.6861 145.884C47.6861 146.531 47.5326 147.123 47.2257 147.66C46.9187 148.186 46.4583 148.603 45.8444 148.91C45.2305 149.217 44.4522 149.37 43.5094 149.37ZM53.7769 149.37C52.8889 149.37 52.0997 149.14 51.409 148.68C50.7184 148.208 50.1758 147.539 49.7811 146.673C49.3865 145.796 49.1891 144.744 49.1891 143.516C49.1891 142.288 49.3865 141.242 49.7811 140.375C50.1758 139.499 50.7184 138.83 51.409 138.369C52.0997 137.898 52.8889 137.662 53.7769 137.662C54.6649 137.662 55.4541 137.898 56.1448 138.369C56.8354 138.83 57.3781 139.499 57.7727 140.375C58.1783 141.242 58.3811 142.288 58.3811 143.516C58.3811 144.744 58.1783 145.796 57.7727 146.673C57.3781 147.539 56.8354 148.208 56.1448 148.68C55.4541 149.14 54.6649 149.37 53.7769 149.37ZM53.7769 148.285C54.4566 148.285 55.0485 148.104 55.5528 147.742C56.0571 147.37 56.4517 146.832 56.7368 146.131C57.0218 145.418 57.1643 144.547 57.1643 143.516C57.1643 142.486 57.0218 141.62 56.7368 140.918C56.4517 140.206 56.0571 139.668 55.5528 139.307C55.0485 138.934 54.4566 138.748 53.7769 138.748C53.1192 138.748 52.5327 138.934 52.0174 139.307C51.5022 139.668 51.1021 140.206 50.8171 140.918C50.532 141.62 50.3895 142.486 50.3895 143.516C50.3895 144.547 50.532 145.418 50.8171 146.131C51.1021 146.832 51.5022 147.37 52.0174 147.742C52.5327 148.104 53.1192 148.285 53.7769 148.285ZM64.6644 149.37C63.7764 149.37 62.9871 149.14 62.2965 148.68C61.6059 148.208 61.0632 147.539 60.6686 146.673C60.2739 145.796 60.0766 144.744 60.0766 143.516C60.0766 142.288 60.2739 141.242 60.6686 140.375C61.0632 139.499 61.6059 138.83 62.2965 138.369C62.9871 137.898 63.7764 137.662 64.6644 137.662C65.5523 137.662 66.3416 137.898 67.0322 138.369C67.7229 138.83 68.2655 139.499 68.6602 140.375C69.0658 141.242 69.2686 142.288 69.2686 143.516C69.2686 144.744 69.0658 145.796 68.6602 146.673C68.2655 147.539 67.7229 148.208 67.0322 148.68C66.3416 149.14 65.5523 149.37 64.6644 149.37ZM64.6644 148.285C65.344 148.285 65.936 148.104 66.4403 147.742C66.9445 147.37 67.3392 146.832 67.6242 146.131C67.9092 145.418 68.0517 144.547 68.0517 143.516C68.0517 142.486 67.9092 141.62 67.6242 140.918C67.3392 140.206 66.9445 139.668 66.4403 139.307C65.936 138.934 65.344 138.748 64.6644 138.748C64.0066 138.748 63.4201 138.934 62.9049 139.307C62.3897 139.668 61.9895 140.206 61.7045 140.918C61.4195 141.62 61.277 142.486 61.277 143.516C61.277 144.547 61.4195 145.418 61.7045 146.131C61.9895 146.832 62.3897 147.37 62.9049 147.742C63.4201 148.104 64.0066 148.285 64.6644 148.285ZM75.5518 149.37C74.6639 149.37 73.8746 149.14 73.1839 148.68C72.4933 148.208 71.9507 147.539 71.556 146.673C71.1614 145.796 70.9641 144.744 70.9641 143.516C70.9641 142.288 71.1614 141.242 71.556 140.375C71.9507 139.499 72.4933 138.83 73.1839 138.369C73.8746 137.898 74.6639 137.662 75.5518 137.662C76.4398 137.662 77.2291 137.898 77.9197 138.369C78.6103 138.83 79.153 139.499 79.5476 140.375C79.9532 141.242 80.156 142.288 80.156 143.516C80.156 144.744 79.9532 145.796 79.5476 146.673C79.153 147.539 78.6103 148.208 77.9197 148.68C77.2291 149.14 76.4398 149.37 75.5518 149.37ZM75.5518 148.285C76.2315 148.285 76.8235 148.104 77.3277 147.742C77.832 147.37 78.2266 146.832 78.5117 146.131C78.7967 145.418 78.9392 144.547 78.9392 143.516C78.9392 142.486 78.7967 141.62 78.5117 140.918C78.2266 140.206 77.832 139.668 77.3277 139.307C76.8235 138.934 76.2315 138.748 75.5518 138.748C74.8941 138.748 74.3076 138.934 73.7924 139.307C73.2771 139.668 72.877 140.206 72.592 140.918C72.307 141.62 72.1644 142.486 72.1644 143.516C72.1644 144.547 72.307 145.418 72.592 146.131C72.877 146.832 73.2771 147.37 73.7924 147.742C74.3076 148.104 74.8941 148.285 75.5518 148.285ZM82.5628 149.354C82.3217 149.354 82.1134 149.266 81.938 149.091C81.7735 148.915 81.6913 148.701 81.6913 148.449C81.6913 148.186 81.7735 147.972 81.938 147.808C82.1134 147.644 82.3217 147.561 82.5628 147.561C82.804 147.561 83.0068 147.644 83.1712 147.808C83.3466 147.972 83.4343 148.186 83.4343 148.449C83.4343 148.701 83.3466 148.915 83.1712 149.091C83.0068 149.266 82.804 149.354 82.5628 149.354ZM89.5706 149.37C88.6827 149.37 87.8934 149.14 87.2027 148.68C86.5121 148.208 85.9695 147.539 85.5748 146.673C85.1802 145.796 84.9829 144.744 84.9829 143.516C84.9829 142.288 85.1802 141.242 85.5748 140.375C85.9695 139.499 86.5121 138.83 87.2027 138.369C87.8934 137.898 88.6827 137.662 89.5706 137.662C90.4586 137.662 91.2479 137.898 91.9385 138.369C92.6291 138.83 93.1718 139.499 93.5664 140.375C93.972 141.242 94.1748 142.288 94.1748 143.516C94.1748 144.744 93.972 145.796 93.5664 146.673C93.1718 147.539 92.6291 148.208 91.9385 148.68C91.2479 149.14 90.4586 149.37 89.5706 149.37ZM89.5706 148.285C90.2503 148.285 90.8423 148.104 91.3465 147.742C91.8508 147.37 92.2455 146.832 92.5305 146.131C92.8155 145.418 92.958 144.547 92.958 143.516C92.958 142.486 92.8155 141.62 92.5305 140.918C92.2455 140.206 91.8508 139.668 91.3465 139.307C90.8423 138.934 90.2503 138.748 89.5706 138.748C88.9129 138.748 88.3264 138.934 87.8112 139.307C87.2959 139.668 86.8958 140.206 86.6108 140.918C86.3258 141.62 86.1832 142.486 86.1832 143.516C86.1832 144.547 86.3258 145.418 86.6108 146.131C86.8958 146.832 87.2959 147.37 87.8112 147.742C88.3264 148.104 88.9129 148.285 89.5706 148.285ZM100.458 149.37C99.5701 149.37 98.7808 149.14 98.0902 148.68C97.3996 148.208 96.8569 147.539 96.4623 146.673C96.0676 145.796 95.8703 144.744 95.8703 143.516C95.8703 142.288 96.0676 141.242 96.4623 140.375C96.8569 139.499 97.3996 138.83 98.0902 138.369C98.7808 137.898 99.5701 137.662 100.458 137.662C101.346 137.662 102.135 137.898 102.826 138.369C103.517 138.83 104.059 139.499 104.454 140.375C104.859 141.242 105.062 142.288 105.062 143.516C105.062 144.744 104.859 145.796 104.454 146.673C104.059 147.539 103.517 148.208 102.826 148.68C102.135 149.14 101.346 149.37 100.458 149.37ZM100.458 148.285C101.138 148.285 101.73 148.104 102.234 147.742C102.738 147.37 103.133 146.832 103.418 146.131C103.703 145.418 103.845 144.547 103.845 143.516C103.845 142.486 103.703 141.62 103.418 140.918C103.133 140.206 102.738 139.668 102.234 139.307C101.73 138.934 101.138 138.748 100.458 138.748C99.8003 138.748 99.2139 138.934 98.6986 139.307C98.1834 139.668 97.7833 140.206 97.4982 140.918C97.2132 141.62 97.0707 142.486 97.0707 143.516C97.0707 144.547 97.2132 145.418 97.4982 146.131C97.7833 146.832 98.1834 147.37 98.6986 147.742C99.2139 148.104 99.8003 148.285 100.458 148.285Z" fill="#C1C9D5"/>
<rect x="122.443" y="142.771" width="422" height="1" fill="#1C3554"/>
<path d="M34.5744 210.006C33.5549 210.006 32.6943 209.781 31.9927 209.332C31.2911 208.871 30.7595 208.214 30.3977 207.358C30.0359 206.492 29.8551 205.456 29.8551 204.251C29.8551 202.946 30.0743 201.855 30.5128 200.978C30.9623 200.09 31.5816 199.422 32.3709 198.972C33.1602 198.523 34.0756 198.298 35.117 198.298C35.6323 198.298 36.1256 198.347 36.5969 198.446C37.0683 198.545 37.4849 198.704 37.8467 198.923L37.3698 199.877C37.0738 199.679 36.734 199.542 36.3503 199.466C35.9666 199.378 35.561 199.334 35.1335 199.334C33.8947 199.334 32.9026 199.729 32.1572 200.518C31.4227 201.307 31.0554 202.486 31.0554 204.053C31.0554 204.294 31.0664 204.596 31.0883 204.958C31.1212 205.309 31.187 205.659 31.2857 206.01L30.8746 205.698C30.9952 205.128 31.2308 204.645 31.5816 204.251C31.9324 203.845 32.3709 203.538 32.8971 203.33C33.4233 203.122 33.9989 203.017 34.6237 203.017C35.3911 203.017 36.0653 203.16 36.6463 203.445C37.2273 203.73 37.6822 204.13 38.0111 204.645C38.34 205.161 38.5044 205.769 38.5044 206.471C38.5044 207.183 38.3345 207.808 37.9946 208.345C37.6548 208.871 37.1834 209.282 36.5805 209.578C35.9885 209.863 35.3198 210.006 34.5744 210.006ZM34.525 209.003C35.0732 209.003 35.5555 208.904 35.9721 208.707C36.3996 208.499 36.734 208.208 36.9751 207.835C37.2163 207.452 37.3369 207.008 37.3369 206.503C37.3369 205.747 37.0738 205.144 36.5476 204.695C36.0324 204.245 35.3308 204.02 34.4428 204.02C33.8509 204.02 33.3356 204.13 32.8971 204.349C32.4586 204.569 32.1133 204.87 31.8612 205.254C31.6091 205.626 31.483 206.054 31.483 206.536C31.483 206.953 31.5981 207.353 31.8283 207.737C32.0585 208.109 32.3983 208.416 32.8478 208.658C33.3082 208.888 33.8673 209.003 34.525 209.003ZM44.4631 210.006C43.5752 210.006 42.7859 209.776 42.0953 209.315C41.4046 208.844 40.862 208.175 40.4674 207.309C40.0727 206.432 39.8754 205.38 39.8754 204.152C39.8754 202.924 40.0727 201.877 40.4674 201.011C40.862 200.134 41.4046 199.466 42.0953 199.005C42.7859 198.534 43.5752 198.298 44.4631 198.298C45.3511 198.298 46.1404 198.534 46.831 199.005C47.5217 199.466 48.0643 200.134 48.4589 201.011C48.8645 201.877 49.0674 202.924 49.0674 204.152C49.0674 205.38 48.8645 206.432 48.4589 207.309C48.0643 208.175 47.5217 208.844 46.831 209.315C46.1404 209.776 45.3511 210.006 44.4631 210.006ZM44.4631 208.921C45.1428 208.921 45.7348 208.74 46.2391 208.378C46.7433 208.005 47.138 207.468 47.423 206.766C47.708 206.054 47.8505 205.182 47.8505 204.152C47.8505 203.122 47.708 202.255 47.423 201.554C47.138 200.841 46.7433 200.304 46.2391 199.942C45.7348 199.57 45.1428 199.383 44.4631 199.383C43.8054 199.383 43.2189 199.57 42.7037 199.942C42.1884 200.304 41.7883 200.841 41.5033 201.554C41.2183 202.255 41.0758 203.122 41.0758 204.152C41.0758 205.182 41.2183 206.054 41.5033 206.766C41.7883 207.468 42.1884 208.005 42.7037 208.378C43.2189 208.74 43.8054 208.921 44.4631 208.921ZM55.3506 210.006C54.4627 210.006 53.6734 209.776 52.9827 209.315C52.2921 208.844 51.7495 208.175 51.3548 207.309C50.9602 206.432 50.7628 205.38 50.7628 204.152C50.7628 202.924 50.9602 201.877 51.3548 201.011C51.7495 200.134 52.2921 199.466 52.9827 199.005C53.6734 198.534 54.4627 198.298 55.3506 198.298C56.2386 198.298 57.0279 198.534 57.7185 199.005C58.4091 199.466 58.9518 200.134 59.3464 201.011C59.752 201.877 59.9548 202.924 59.9548 204.152C59.9548 205.38 59.752 206.432 59.3464 207.309C58.9518 208.175 58.4091 208.844 57.7185 209.315C57.0279 209.776 56.2386 210.006 55.3506 210.006ZM55.3506 208.921C56.0303 208.921 56.6222 208.74 57.1265 208.378C57.6308 208.005 58.0254 207.468 58.3105 206.766C58.5955 206.054 58.738 205.182 58.738 204.152C58.738 203.122 58.5955 202.255 58.3105 201.554C58.0254 200.841 57.6308 200.304 57.1265 199.942C56.6222 199.57 56.0303 199.383 55.3506 199.383C54.6929 199.383 54.1064 199.57 53.5911 199.942C53.0759 200.304 52.6758 200.841 52.3908 201.554C52.1057 202.255 51.9632 203.122 51.9632 204.152C51.9632 205.182 52.1057 206.054 52.3908 206.766C52.6758 207.468 53.0759 208.005 53.5911 208.378C54.1064 208.74 54.6929 208.921 55.3506 208.921ZM66.2381 210.006C65.3501 210.006 64.5608 209.776 63.8702 209.315C63.1796 208.844 62.6369 208.175 62.2423 207.309C61.8476 206.432 61.6503 205.38 61.6503 204.152C61.6503 202.924 61.8476 201.877 62.2423 201.011C62.6369 200.134 63.1796 199.466 63.8702 199.005C64.5608 198.534 65.3501 198.298 66.2381 198.298C67.126 198.298 67.9153 198.534 68.6059 199.005C69.2966 199.466 69.8392 200.134 70.2339 201.011C70.6395 201.877 70.8423 202.924 70.8423 204.152C70.8423 205.38 70.6395 206.432 70.2339 207.309C69.8392 208.175 69.2966 208.844 68.6059 209.315C67.9153 209.776 67.126 210.006 66.2381 210.006ZM66.2381 208.921C66.9177 208.921 67.5097 208.74 68.014 208.378C68.5182 208.005 68.9129 207.468 69.1979 206.766C69.4829 206.054 69.6254 205.182 69.6254 204.152C69.6254 203.122 69.4829 202.255 69.1979 201.554C68.9129 200.841 68.5182 200.304 68.014 199.942C67.5097 199.57 66.9177 199.383 66.2381 199.383C65.5803 199.383 64.9938 199.57 64.4786 199.942C63.9634 200.304 63.5632 200.841 63.2782 201.554C62.9932 202.255 62.8507 203.122 62.8507 204.152C62.8507 205.182 62.9932 206.054 63.2782 206.766C63.5632 207.468 63.9634 208.005 64.4786 208.378C64.9938 208.74 65.5803 208.921 66.2381 208.921ZM77.1255 210.006C76.2376 210.006 75.4483 209.776 74.7576 209.315C74.067 208.844 73.5244 208.175 73.1297 207.309C72.7351 206.432 72.5378 205.38 72.5378 204.152C72.5378 202.924 72.7351 201.877 73.1297 201.011C73.5244 200.134 74.067 199.466 74.7576 199.005C75.4483 198.534 76.2376 198.298 77.1255 198.298C78.0135 198.298 78.8028 198.534 79.4934 199.005C80.184 199.466 80.7267 200.134 81.1213 201.011C81.5269 201.877 81.7297 202.924 81.7297 204.152C81.7297 205.38 81.5269 206.432 81.1213 207.309C80.7267 208.175 80.184 208.844 79.4934 209.315C78.8028 209.776 78.0135 210.006 77.1255 210.006ZM77.1255 208.921C77.8052 208.921 78.3972 208.74 78.9014 208.378C79.4057 208.005 79.8003 207.468 80.0854 206.766C80.3704 206.054 80.5129 205.182 80.5129 204.152C80.5129 203.122 80.3704 202.255 80.0854 201.554C79.8003 200.841 79.4057 200.304 78.9014 199.942C78.3972 199.57 77.8052 199.383 77.1255 199.383C76.4678 199.383 75.8813 199.57 75.3661 199.942C74.8508 200.304 74.4507 200.841 74.1657 201.554C73.8807 202.255 73.7381 203.122 73.7381 204.152C73.7381 205.182 73.8807 206.054 74.1657 206.766C74.4507 207.468 74.8508 208.005 75.3661 208.378C75.8813 208.74 76.4678 208.921 77.1255 208.921ZM84.1365 209.989C83.8954 209.989 83.6871 209.902 83.5117 209.726C83.3472 209.551 83.265 209.337 83.265 209.085C83.265 208.822 83.3472 208.608 83.5117 208.444C83.6871 208.279 83.8954 208.197 84.1365 208.197C84.3777 208.197 84.5805 208.279 84.7449 208.444C84.9203 208.608 85.008 208.822 85.008 209.085C85.008 209.337 84.9203 209.551 84.7449 209.726C84.5805 209.902 84.3777 209.989 84.1365 209.989ZM91.1443 210.006C90.2564 210.006 89.4671 209.776 88.7765 209.315C88.0858 208.844 87.5432 208.175 87.1485 207.309C86.7539 206.432 86.5566 205.38 86.5566 204.152C86.5566 202.924 86.7539 201.877 87.1485 201.011C87.5432 200.134 88.0858 199.466 88.7765 199.005C89.4671 198.534 90.2564 198.298 91.1443 198.298C92.0323 198.298 92.8216 198.534 93.5122 199.005C94.2028 199.466 94.7455 200.134 95.1401 201.011C95.5457 201.877 95.7485 202.924 95.7485 204.152C95.7485 205.38 95.5457 206.432 95.1401 207.309C94.7455 208.175 94.2028 208.844 93.5122 209.315C92.8216 209.776 92.0323 210.006 91.1443 210.006ZM91.1443 208.921C91.824 208.921 92.416 208.74 92.9202 208.378C93.4245 208.005 93.8192 207.468 94.1042 206.766C94.3892 206.054 94.5317 205.182 94.5317 204.152C94.5317 203.122 94.3892 202.255 94.1042 201.554C93.8192 200.841 93.4245 200.304 92.9202 199.942C92.416 199.57 91.824 199.383 91.1443 199.383C90.4866 199.383 89.9001 199.57 89.3849 199.942C88.8696 200.304 88.4695 200.841 88.1845 201.554C87.8995 202.255 87.7569 203.122 87.7569 204.152C87.7569 205.182 87.8995 206.054 88.1845 206.766C88.4695 207.468 88.8696 208.005 89.3849 208.378C89.9001 208.74 90.4866 208.921 91.1443 208.921ZM102.032 210.006C101.144 210.006 100.355 209.776 99.6639 209.315C98.9733 208.844 98.4306 208.175 98.036 207.309C97.6413 206.432 97.444 205.38 97.444 204.152C97.444 202.924 97.6413 201.877 98.036 201.011C98.4306 200.134 98.9733 199.466 99.6639 199.005C100.355 198.534 101.144 198.298 102.032 198.298C102.92 198.298 103.709 198.534 104.4 199.005C105.09 199.466 105.633 200.134 106.028 201.011C106.433 201.877 106.636 202.924 106.636 204.152C106.636 205.38 106.433 206.432 106.028 207.309C105.633 208.175 105.09 208.844 104.4 209.315C103.709 209.776 102.92 210.006 102.032 210.006ZM102.032 208.921C102.711 208.921 103.303 208.74 103.808 208.378C104.312 208.005 104.707 207.468 104.992 206.766C105.277 206.054 105.419 205.182 105.419 204.152C105.419 203.122 105.277 202.255 104.992 201.554C104.707 200.841 104.312 200.304 103.808 199.942C103.303 199.57 102.711 199.383 102.032 199.383C101.374 199.383 100.788 199.57 100.272 199.942C99.7571 200.304 99.357 200.841 99.0719 201.554C98.7869 202.255 98.6444 203.122 98.6444 204.152C98.6444 205.182 98.7869 206.054 99.0719 206.766C99.357 207.468 99.7571 208.005 100.272 208.378C100.788 208.74 101.374 208.921 102.032 208.921Z" fill="#C1C9D5"/>
<rect x="124.443" y="203.407" width="422" height="1" fill="#1C3554"/>
<path d="M33.4891 270.642C32.6669 270.642 31.8831 270.51 31.1377 270.247C30.3922 269.973 29.8003 269.611 29.3618 269.162L29.9373 268.224C30.299 268.608 30.7924 268.926 31.4172 269.178C32.053 269.43 32.7382 269.556 33.4727 269.556C34.4483 269.556 35.1883 269.343 35.6925 268.915C36.2078 268.477 36.4654 267.907 36.4654 267.205C36.4654 266.712 36.3448 266.29 36.1036 265.939C35.8734 265.577 35.4788 265.297 34.9197 265.1C34.3606 264.903 33.5932 264.804 32.6176 264.804H30.1675L30.7595 259.032H37.0574V260.085H31.2363L31.8447 259.509L31.335 264.344L30.7266 263.752H32.8807C34.0427 263.752 34.9745 263.894 35.6761 264.179C36.3777 264.464 36.882 264.864 37.1889 265.38C37.5068 265.884 37.6658 266.476 37.6658 267.156C37.6658 267.802 37.5123 268.394 37.2054 268.931C36.8984 269.458 36.438 269.874 35.8241 270.181C35.2102 270.488 34.4319 270.642 33.4891 270.642ZM42.7226 270.642C41.9004 270.642 41.1166 270.51 40.3711 270.247C39.6257 269.973 39.0337 269.611 38.5952 269.162L39.1707 268.224C39.5325 268.608 40.0258 268.926 40.6507 269.178C41.2865 269.43 41.9716 269.556 42.7061 269.556C43.6818 269.556 44.4217 269.343 44.926 268.915C45.4412 268.477 45.6989 267.907 45.6989 267.205C45.6989 266.712 45.5783 266.29 45.3371 265.939C45.1069 265.577 44.7122 265.297 44.1532 265.1C43.5941 264.903 42.8267 264.804 41.8511 264.804H39.401L39.9929 259.032H46.2908V260.085H40.4698L41.0782 259.509L40.5685 264.344L39.96 263.752H42.1142C43.2762 263.752 44.208 263.894 44.9096 264.179C45.6112 264.464 46.1154 264.864 46.4224 265.38C46.7403 265.884 46.8992 266.476 46.8992 267.156C46.8992 267.802 46.7458 268.394 46.4388 268.931C46.1319 269.458 45.6715 269.874 45.0576 270.181C44.4437 270.488 43.6653 270.642 42.7226 270.642ZM52.99 270.642C52.1021 270.642 51.3128 270.411 50.6222 269.951C49.9315 269.48 49.3889 268.811 48.9943 267.945C48.5996 267.068 48.4023 266.015 48.4023 264.788C48.4023 263.56 48.5996 262.513 48.9943 261.647C49.3889 260.77 49.9315 260.101 50.6222 259.641C51.3128 259.169 52.1021 258.934 52.99 258.934C53.878 258.934 54.6673 259.169 55.3579 259.641C56.0486 260.101 56.5912 260.77 56.9858 261.647C57.3915 262.513 57.5943 263.56 57.5943 264.788C57.5943 266.015 57.3915 267.068 56.9858 267.945C56.5912 268.811 56.0486 269.48 55.3579 269.951C54.6673 270.411 53.878 270.642 52.99 270.642ZM52.99 269.556C53.6697 269.556 54.2617 269.375 54.766 269.014C55.2702 268.641 55.6649 268.104 55.9499 267.402C56.2349 266.69 56.3774 265.818 56.3774 264.788C56.3774 263.757 56.2349 262.891 55.9499 262.19C55.6649 261.477 55.2702 260.94 54.766 260.578C54.2617 260.205 53.6697 260.019 52.99 260.019C52.3323 260.019 51.7458 260.205 51.2306 260.578C50.7154 260.94 50.3152 261.477 50.0302 262.19C49.7452 262.891 49.6027 263.757 49.6027 264.788C49.6027 265.818 49.7452 266.69 50.0302 267.402C50.3152 268.104 50.7154 268.641 51.2306 269.014C51.7458 269.375 52.3323 269.556 52.99 269.556ZM63.8775 270.642C62.9896 270.642 62.2003 270.411 61.5096 269.951C60.819 269.48 60.2764 268.811 59.8817 267.945C59.4871 267.068 59.2897 266.015 59.2897 264.788C59.2897 263.56 59.4871 262.513 59.8817 261.647C60.2764 260.77 60.819 260.101 61.5096 259.641C62.2003 259.169 62.9896 258.934 63.8775 258.934C64.7655 258.934 65.5548 259.169 66.2454 259.641C66.936 260.101 67.4787 260.77 67.8733 261.647C68.2789 262.513 68.4817 263.56 68.4817 264.788C68.4817 266.015 68.2789 267.068 67.8733 267.945C67.4787 268.811 66.936 269.48 66.2454 269.951C65.5548 270.411 64.7655 270.642 63.8775 270.642ZM63.8775 269.556C64.5572 269.556 65.1491 269.375 65.6534 269.014C66.1577 268.641 66.5523 268.104 66.8374 267.402C67.1224 266.69 67.2649 265.818 67.2649 264.788C67.2649 263.757 67.1224 262.891 66.8374 262.19C66.5523 261.477 66.1577 260.94 65.6534 260.578C65.1491 260.205 64.5572 260.019 63.8775 260.019C63.2198 260.019 62.6333 260.205 62.118 260.578C61.6028 260.94 61.2027 261.477 60.9177 262.19C60.6326 262.891 60.4901 263.757 60.4901 264.788C60.4901 265.818 60.6326 266.69 60.9177 267.402C61.2027 268.104 61.6028 268.641 62.118 269.014C62.6333 269.375 63.2198 269.556 63.8775 269.556ZM74.765 270.642C73.877 270.642 73.0877 270.411 72.3971 269.951C71.7065 269.48 71.1638 268.811 70.7692 267.945C70.3745 267.068 70.1772 266.015 70.1772 264.788C70.1772 263.56 70.3745 262.513 70.7692 261.647C71.1638 260.77 71.7065 260.101 72.3971 259.641C73.0877 259.169 73.877 258.934 74.765 258.934C75.6529 258.934 76.4422 259.169 77.1328 259.641C77.8235 260.101 78.3661 260.77 78.7608 261.647C79.1664 262.513 79.3692 263.56 79.3692 264.788C79.3692 266.015 79.1664 267.068 78.7608 267.945C78.3661 268.811 77.8235 269.48 77.1328 269.951C76.4422 270.411 75.6529 270.642 74.765 270.642ZM74.765 269.556C75.4446 269.556 76.0366 269.375 76.5409 269.014C77.0451 268.641 77.4398 268.104 77.7248 267.402C78.0098 266.69 78.1523 265.818 78.1523 264.788C78.1523 263.757 78.0098 262.891 77.7248 262.19C77.4398 261.477 77.0451 260.94 76.5409 260.578C76.0366 260.205 75.4446 260.019 74.765 260.019C74.1072 260.019 73.5207 260.205 73.0055 260.578C72.4903 260.94 72.0901 261.477 71.8051 262.19C71.5201 262.891 71.3776 263.757 71.3776 264.788C71.3776 265.818 71.5201 266.69 71.8051 267.402C72.0901 268.104 72.4903 268.641 73.0055 269.014C73.5207 269.375 74.1072 269.556 74.765 269.556ZM81.776 270.625C81.5348 270.625 81.3265 270.537 81.1511 270.362C80.9867 270.187 80.9045 269.973 80.9045 269.721C80.9045 269.458 80.9867 269.244 81.1511 269.079C81.3265 268.915 81.5348 268.833 81.776 268.833C82.0171 268.833 82.22 268.915 82.3844 269.079C82.5598 269.244 82.6475 269.458 82.6475 269.721C82.6475 269.973 82.5598 270.187 82.3844 270.362C82.22 270.537 82.0171 270.625 81.776 270.625ZM88.7838 270.642C87.8958 270.642 87.1065 270.411 86.4159 269.951C85.7253 269.48 85.1826 268.811 84.788 267.945C84.3933 267.068 84.196 266.015 84.196 264.788C84.196 263.56 84.3933 262.513 84.788 261.647C85.1826 260.77 85.7253 260.101 86.4159 259.641C87.1065 259.169 87.8958 258.934 88.7838 258.934C89.6717 258.934 90.461 259.169 91.1517 259.641C91.8423 260.101 92.3849 260.77 92.7796 261.647C93.1852 262.513 93.388 263.56 93.388 264.788C93.388 266.015 93.1852 267.068 92.7796 267.945C92.3849 268.811 91.8423 269.48 91.1517 269.951C90.461 270.411 89.6717 270.642 88.7838 270.642ZM88.7838 269.556C89.4634 269.556 90.0554 269.375 90.5597 269.014C91.064 268.641 91.4586 268.104 91.7436 267.402C92.0286 266.69 92.1712 265.818 92.1712 264.788C92.1712 263.757 92.0286 262.891 91.7436 262.19C91.4586 261.477 91.064 260.94 90.5597 260.578C90.0554 260.205 89.4634 260.019 88.7838 260.019C88.126 260.019 87.5395 260.205 87.0243 260.578C86.5091 260.94 86.109 261.477 85.8239 262.19C85.5389 262.891 85.3964 263.757 85.3964 264.788C85.3964 265.818 85.5389 266.69 85.8239 267.402C86.109 268.104 86.5091 268.641 87.0243 269.014C87.5395 269.375 88.126 269.556 88.7838 269.556ZM99.6712 270.642C98.7833 270.642 97.994 270.411 97.3034 269.951C96.6127 269.48 96.0701 268.811 95.6754 267.945C95.2808 267.068 95.0835 266.015 95.0835 264.788C95.0835 263.56 95.2808 262.513 95.6754 261.647C96.0701 260.77 96.6127 260.101 97.3034 259.641C97.994 259.169 98.7833 258.934 99.6712 258.934C100.559 258.934 101.348 259.169 102.039 259.641C102.73 260.101 103.272 260.77 103.667 261.647C104.073 262.513 104.275 263.56 104.275 264.788C104.275 266.015 104.073 267.068 103.667 267.945C103.272 268.811 102.73 269.48 102.039 269.951C101.348 270.411 100.559 270.642 99.6712 270.642ZM99.6712 269.556C100.351 269.556 100.943 269.375 101.447 269.014C101.951 268.641 102.346 268.104 102.631 267.402C102.916 266.69 103.059 265.818 103.059 264.788C103.059 263.757 102.916 262.891 102.631 262.19C102.346 261.477 101.951 260.94 101.447 260.578C100.943 260.205 100.351 260.019 99.6712 260.019C99.0135 260.019 98.427 260.205 97.9118 260.578C97.3965 260.94 96.9964 261.477 96.7114 262.19C96.4264 262.891 96.2839 263.757 96.2839 264.788C96.2839 265.818 96.4264 266.69 96.7114 267.402C96.9964 268.104 97.3965 268.641 97.9118 269.014C98.427 269.375 99.0135 269.556 99.6712 269.556Z" fill="#C1C9D5"/>
<rect x="122.443" y="264.043" width="422" height="1" fill="#1C3554"/>
<path d="M33.4891 331.277C32.6669 331.277 31.8831 331.146 31.1377 330.883C30.3922 330.609 29.8003 330.247 29.3618 329.797L29.9373 328.86C30.299 329.244 30.7924 329.562 31.4172 329.814C32.053 330.066 32.7382 330.192 33.4727 330.192C34.4483 330.192 35.1883 329.978 35.6925 329.551C36.2078 329.112 36.4654 328.542 36.4654 327.841C36.4654 327.347 36.3448 326.925 36.1036 326.575C35.8734 326.213 35.4788 325.933 34.9197 325.736C34.3606 325.539 33.5932 325.44 32.6176 325.44H30.1675L30.7595 319.668H37.0574V320.721H31.2363L31.8447 320.145L31.335 324.979L30.7266 324.388H32.8807C34.0427 324.388 34.9745 324.53 35.6761 324.815C36.3777 325.1 36.882 325.5 37.1889 326.015C37.5068 326.52 37.6658 327.112 37.6658 327.791C37.6658 328.438 37.5123 329.03 37.2054 329.567C36.8984 330.093 36.438 330.51 35.8241 330.817C35.2102 331.124 34.4319 331.277 33.4891 331.277ZM43.7566 331.277C42.8686 331.277 42.0793 331.047 41.3887 330.587C40.6981 330.115 40.1554 329.447 39.7608 328.581C39.3661 327.704 39.1688 326.651 39.1688 325.423C39.1688 324.196 39.3661 323.149 39.7608 322.283C40.1554 321.406 40.6981 320.737 41.3887 320.277C42.0793 319.805 42.8686 319.57 43.7566 319.57C44.6445 319.57 45.4338 319.805 46.1245 320.277C46.8151 320.737 47.3577 321.406 47.7524 322.283C48.158 323.149 48.3608 324.196 48.3608 325.423C48.3608 326.651 48.158 327.704 47.7524 328.581C47.3577 329.447 46.8151 330.115 46.1245 330.587C45.4338 331.047 44.6445 331.277 43.7566 331.277ZM43.7566 330.192C44.4363 330.192 45.0282 330.011 45.5325 329.649C46.0368 329.277 46.4314 328.74 46.7164 328.038C47.0015 327.325 47.144 326.454 47.144 325.423C47.144 324.393 47.0015 323.527 46.7164 322.825C46.4314 322.113 46.0368 321.576 45.5325 321.214C45.0282 320.841 44.4363 320.655 43.7566 320.655C43.0988 320.655 42.5124 320.841 41.9971 321.214C41.4819 321.576 41.0818 322.113 40.7967 322.825C40.5117 323.527 40.3692 324.393 40.3692 325.423C40.3692 326.454 40.5117 327.325 40.7967 328.038C41.0818 328.74 41.4819 329.277 41.9971 329.649C42.5124 330.011 43.0988 330.192 43.7566 330.192ZM54.644 331.277C53.7561 331.277 52.9668 331.047 52.2762 330.587C51.5855 330.115 51.0429 329.447 50.6483 328.581C50.2536 327.704 50.0563 326.651 50.0563 325.423C50.0563 324.196 50.2536 323.149 50.6483 322.283C51.0429 321.406 51.5855 320.737 52.2762 320.277C52.9668 319.805 53.7561 319.57 54.644 319.57C55.532 319.57 56.3213 319.805 57.0119 320.277C57.7026 320.737 58.2452 321.406 58.6398 322.283C59.0454 323.149 59.2483 324.196 59.2483 325.423C59.2483 326.651 59.0454 327.704 58.6398 328.581C58.2452 329.447 57.7026 330.115 57.0119 330.587C56.3213 331.047 55.532 331.277 54.644 331.277ZM54.644 330.192C55.3237 330.192 55.9157 330.011 56.42 329.649C56.9242 329.277 57.3189 328.74 57.6039 328.038C57.8889 327.325 58.0314 326.454 58.0314 325.423C58.0314 324.393 57.8889 323.527 57.6039 322.825C57.3189 322.113 56.9242 321.576 56.42 321.214C55.9157 320.841 55.3237 320.655 54.644 320.655C53.9863 320.655 53.3998 320.841 52.8846 321.214C52.3693 321.576 51.9692 322.113 51.6842 322.825C51.3992 323.527 51.2567 324.393 51.2567 325.423C51.2567 326.454 51.3992 327.325 51.6842 328.038C51.9692 328.74 52.3693 329.277 52.8846 329.649C53.3998 330.011 53.9863 330.192 54.644 330.192ZM65.5315 331.277C64.6435 331.277 63.8543 331.047 63.1636 330.587C62.473 330.115 61.9304 329.447 61.5357 328.581C61.1411 327.704 60.9437 326.651 60.9437 325.423C60.9437 324.196 61.1411 323.149 61.5357 322.283C61.9304 321.406 62.473 320.737 63.1636 320.277C63.8543 319.805 64.6435 319.57 65.5315 319.57C66.4195 319.57 67.2088 319.805 67.8994 320.277C68.59 320.737 69.1327 321.406 69.5273 322.283C69.9329 323.149 70.1357 324.196 70.1357 325.423C70.1357 326.651 69.9329 327.704 69.5273 328.581C69.1327 329.447 68.59 330.115 67.8994 330.587C67.2088 331.047 66.4195 331.277 65.5315 331.277ZM65.5315 330.192C66.2112 330.192 66.8031 330.011 67.3074 329.649C67.8117 329.277 68.2063 328.74 68.4914 328.038C68.7764 327.325 68.9189 326.454 68.9189 325.423C68.9189 324.393 68.7764 323.527 68.4914 322.825C68.2063 322.113 67.8117 321.576 67.3074 321.214C66.8031 320.841 66.2112 320.655 65.5315 320.655C64.8738 320.655 64.2873 320.841 63.772 321.214C63.2568 321.576 62.8567 322.113 62.5717 322.825C62.2866 323.527 62.1441 324.393 62.1441 325.423C62.1441 326.454 62.2866 327.325 62.5717 328.038C62.8567 328.74 63.2568 329.277 63.772 329.649C64.2873 330.011 64.8738 330.192 65.5315 330.192ZM76.419 331.277C75.531 331.277 74.7417 331.047 74.0511 330.587C73.3605 330.115 72.8178 329.447 72.4232 328.581C72.0285 327.704 71.8312 326.651 71.8312 325.423C71.8312 324.196 72.0285 323.149 72.4232 322.283C72.8178 321.406 73.3605 320.737 74.0511 320.277C74.7417 319.805 75.531 319.57 76.419 319.57C77.3069 319.57 78.0962 319.805 78.7868 320.277C79.4775 320.737 80.0201 321.406 80.4148 322.283C80.8204 323.149 81.0232 324.196 81.0232 325.423C81.0232 326.651 80.8204 327.704 80.4148 328.581C80.0201 329.447 79.4775 330.115 78.7868 330.587C78.0962 331.047 77.3069 331.277 76.419 331.277ZM76.419 330.192C77.0986 330.192 77.6906 330.011 78.1949 329.649C78.6991 329.277 79.0938 328.74 79.3788 328.038C79.6638 327.325 79.8063 326.454 79.8063 325.423C79.8063 324.393 79.6638 323.527 79.3788 322.825C79.0938 322.113 78.6991 321.576 78.1949 321.214C77.6906 320.841 77.0986 320.655 76.419 320.655C75.7612 320.655 75.1747 320.841 74.6595 321.214C74.1443 321.576 73.7441 322.113 73.4591 322.825C73.1741 323.527 73.0316 324.393 73.0316 325.423C73.0316 326.454 73.1741 327.325 73.4591 328.038C73.7441 328.74 74.1443 329.277 74.6595 329.649C75.1747 330.011 75.7612 330.192 76.419 330.192ZM83.43 331.261C83.1888 331.261 82.9805 331.173 82.8051 330.998C82.6407 330.822 82.5585 330.609 82.5585 330.357C82.5585 330.093 82.6407 329.88 82.8051 329.715C82.9805 329.551 83.1888 329.469 83.43 329.469C83.6711 329.469 83.8739 329.551 84.0384 329.715C84.2138 329.88 84.3015 330.093 84.3015 330.357C84.3015 330.609 84.2138 330.822 84.0384 330.998C83.8739 331.173 83.6711 331.261 83.43 331.261ZM90.4378 331.277C89.5498 331.277 88.7605 331.047 88.0699 330.587C87.3793 330.115 86.8366 329.447 86.442 328.581C86.0473 327.704 85.85 326.651 85.85 325.423C85.85 324.196 86.0473 323.149 86.442 322.283C86.8366 321.406 87.3793 320.737 88.0699 320.277C88.7605 319.805 89.5498 319.57 90.4378 319.57C91.3257 319.57 92.115 319.805 92.8057 320.277C93.4963 320.737 94.0389 321.406 94.4336 322.283C94.8392 323.149 95.042 324.196 95.042 325.423C95.042 326.651 94.8392 327.704 94.4336 328.581C94.0389 329.447 93.4963 330.115 92.8057 330.587C92.115 331.047 91.3257 331.277 90.4378 331.277ZM90.4378 330.192C91.1174 330.192 91.7094 330.011 92.2137 329.649C92.718 329.277 93.1126 328.74 93.3976 328.038C93.6826 327.325 93.8252 326.454 93.8252 325.423C93.8252 324.393 93.6826 323.527 93.3976 322.825C93.1126 322.113 92.718 321.576 92.2137 321.214C91.7094 320.841 91.1174 320.655 90.4378 320.655C89.78 320.655 89.1935 320.841 88.6783 321.214C88.1631 321.576 87.7629 322.113 87.4779 322.825C87.1929 323.527 87.0504 324.393 87.0504 325.423C87.0504 326.454 87.1929 327.325 87.4779 328.038C87.7629 328.74 88.1631 329.277 88.6783 329.649C89.1935 330.011 89.78 330.192 90.4378 330.192ZM101.325 331.277C100.437 331.277 99.648 331.047 98.9574 330.587C98.2667 330.115 97.7241 329.447 97.3294 328.581C96.9348 327.704 96.7375 326.651 96.7375 325.423C96.7375 324.196 96.9348 323.149 97.3294 322.283C97.7241 321.406 98.2667 320.737 98.9574 320.277C99.648 319.805 100.437 319.57 101.325 319.57C102.213 319.57 103.002 319.805 103.693 320.277C104.384 320.737 104.926 321.406 105.321 322.283C105.727 323.149 105.929 324.196 105.929 325.423C105.929 326.651 105.727 327.704 105.321 328.581C104.926 329.447 104.384 330.115 103.693 330.587C103.002 331.047 102.213 331.277 101.325 331.277ZM101.325 330.192C102.005 330.192 102.597 330.011 103.101 329.649C103.605 329.277 104 328.74 104.285 328.038C104.57 327.325 104.713 326.454 104.713 325.423C104.713 324.393 104.57 323.527 104.285 322.825C104 322.113 103.605 321.576 103.101 321.214C102.597 320.841 102.005 320.655 101.325 320.655C100.667 320.655 100.081 320.841 99.5658 321.214C99.0505 321.576 98.6504 322.113 98.3654 322.825C98.0804 323.527 97.9378 324.393 97.9378 325.423C97.9378 326.454 98.0804 327.325 98.3654 328.038C98.6504 328.74 99.0505 329.277 99.5658 329.649C100.081 330.011 100.667 330.192 101.325 330.192Z" fill="#C1C9D5"/>
<rect x="123.443" y="324.679" width="422" height="1" fill="#1C3554"/>
<rect width="16.4436" height="35.9704" rx="2.05545" transform="matrix(-1 0 0 1 541.979 67.8022)" fill="#FFCC00"/>
<rect width="1.02772" height="115.105" rx="0.513862" transform="matrix(-1 0 0 1 534.785 12)" fill="#FFCC00"/>
<rect width="16.4436" height="13.3604" rx="2.05545" transform="matrix(-1 0 0 1 516.285 126.077)" fill="#FFCC00"/>
<rect width="1.02772" height="41.109" rx="0.513862" transform="matrix(-1 0 0 1 509.092 105.523)" fill="#FFCC00"/>
<rect width="16.4436" height="10.2772" rx="2.05545" transform="matrix(-1 0 0 1 490.592 148.495)" fill="#FFCC00"/>
<rect width="1.02772" height="115.105" rx="0.513862" transform="matrix(-1 0 0 1 483.398 56)" fill="#FFCC00"/>
<rect width="16.4436" height="35.9704" rx="2.05545" transform="matrix(-1 0 0 1 464.898 155.802)" fill="white"/>
<rect width="1.02772" height="115.105" rx="0.513862" transform="matrix(-1 0 0 1 457.705 89)" fill="white"/>
<rect width="16.4436" height="19.5268" rx="2.05545" transform="matrix(-1 0 0 1 439.205 106.551)" fill="#FFCC00"/>
<rect width="1.02772" height="62.6912" rx="0.513862" transform="matrix(-1 0 0 1 432.012 83.9407)" fill="#FFCC00"/>
<rect width="16.4436" height="35.9704" rx="2.05545" transform="matrix(-1 0 0 1 413.514 147.802)" fill="white"/>
<rect width="1.02772" height="115.105" rx="0.513862" transform="matrix(-1 0 0 1 406.32 81)" fill="white"/>
<rect width="16.4436" height="2.05545" rx="1.02772" transform="matrix(-1 0 0 1 387.82 116.828)" fill="#FFCC00"/>
<rect width="1.02772" height="23.6377" rx="0.513862" transform="matrix(-1 0 0 1 380.625 107.578)" fill="#FFCC00"/>
<rect width="16.4436" height="66.8021" rx="2.05545" transform="matrix(-1 0 0 1 362.127 134.802)" fill="white"/>
<rect width="1.02772" height="169.575" rx="0.513862" transform="matrix(-1 0 0 1 354.932 68)" fill="white"/>
<rect width="16.4436" height="17.4713" rx="2.05545" transform="matrix(-1 0 0 1 336.434 182.602)" fill="#FFCC00"/>
<rect width="1.02772" height="115.105" rx="0.513862" transform="matrix(-1 0 0 1 329.238 92.1624)" fill="#FFCC00"/>
<rect width="16.4436" height="26.7208" rx="2.05545" transform="matrix(-1 0 0 1 310.74 147.66)" fill="#FFCC00"/>
<rect width="1.02772" height="49.3308" rx="0.513862" transform="matrix(-1 0 0 1 303.545 146.632)" fill="#FFCC00"/>
<rect width="16.4436" height="35.9704" rx="2.05545" transform="matrix(-1 0 0 1 285.047 202.129)" fill="#FFCC00"/>
<rect width="1.02772" height="115.105" rx="0.513862" transform="matrix(-1 0 0 1 277.854 135.327)" fill="#FFCC00"/>
<rect width="16.4436" height="20.5545" rx="2.05545" transform="matrix(-1 0 0 1 259.354 222.802)" fill="white"/>
<rect width="1.02772" height="115.105" rx="0.513862" transform="matrix(-1 0 0 1 252.16 156)" fill="white"/>
<rect width="16.4436" height="9.24952" rx="2.05545" transform="matrix(-1 0 0 1 234.688 198.333)" fill="white"/>
<rect width="1.02772" height="52.414" transform="matrix(-1 0 0 1 226.467 186)" fill="white"/>
<rect width="16.4436" height="73.9962" rx="2.05545" transform="matrix(-1 0 0 1 211.051 167.802)" fill="#FFCC00"/>
<rect width="1.02772" height="115.105" rx="0.513862" transform="matrix(-1 0 0 1 203.857 117)" fill="#FFCC00"/>
<rect width="16.4436" height="20.5545" rx="2.05545" transform="matrix(-1 0 0 1 185.359 213.802)" fill="#FFCC00"/>
<rect width="1.02772" height="104.828" rx="0.513862" transform="matrix(-1 0 0 1 178.166 147)" fill="#FFCC00"/>
<rect width="16.4436" height="20.5545" rx="2.05545" transform="matrix(-1 0 0 1 159.664 260.802)" fill="#FFCC00"/>
<rect width="1.02772" height="115.105" rx="0.513862" transform="matrix(-1 0 0 1 152.471 194)" fill="#FFCC00"/>
<path d="M155.384 33.0306H158.223V59H155.384V33.0306ZM162.398 33.0306V35.4939H151.209V33.0306H162.398ZM173.768 44.387V36.7882C173.768 36.2315 173.684 35.8836 173.517 35.7444C173.378 35.5774 173.03 35.4939 172.474 35.4939H165.752V33.0306H173.309C174.422 33.0306 175.243 33.3089 175.772 33.8656C176.329 34.3945 176.607 35.2156 176.607 36.3289V44.8462C176.607 45.9596 176.329 46.7946 175.772 47.3513C175.243 47.8802 174.422 48.1446 173.309 48.1446H167.463V45.6813H172.474C173.03 45.6813 173.378 45.5978 173.517 45.4308C173.684 45.2638 173.768 44.9158 173.768 44.387ZM165.752 33.0306H168.591V59H165.752V33.0306ZM170.678 47.0591H173.643L177.943 59H174.853L170.678 47.0591ZM190.229 49.9399V52.4033H182.964V49.9399H190.229ZM193.193 59H190.312L186.429 35.0347L183.006 59H180.125L184.175 33.0306H188.726L193.193 59ZM205.584 42.4247V36.7882C205.584 36.2315 205.5 35.8836 205.333 35.7444C205.194 35.5774 204.846 35.4939 204.29 35.4939H198.57V33.0306H205.166C206.28 33.0306 207.101 33.3089 207.63 33.8656C208.186 34.3945 208.465 35.2156 208.465 36.3289V42.4247H205.584ZM205.584 55.2424V41.3809H208.465V55.7016C208.465 56.815 208.186 57.65 207.63 58.2067C207.101 58.7356 206.28 59 205.166 59H198.57V56.5367H204.29C204.846 56.5367 205.194 56.4532 205.333 56.2862C205.5 56.1191 205.584 55.7712 205.584 55.2424ZM196.941 33.0306H199.822V59H196.941V33.0306ZM213.678 33.0306H216.559V59H213.678V33.0306ZM222.153 44.2617V46.7251H215.515V44.2617H222.153ZM223.406 33.0306V35.4939H215.515V33.0306H223.406ZM223.698 56.5367V59H215.515V56.5367H223.698ZM251.267 33.0306H254.148L250.349 59H246.006L243.084 38.4165L240.203 59H235.861L232.061 33.0306H234.942L238.074 56.9959L241.372 33.0306H244.796L248.094 56.9959L251.267 33.0306ZM258.107 33.0306H260.946V59H258.107V33.0306ZM268.889 33.0306H271.728V59H268.889V33.0306ZM275.903 33.0306V35.4939H264.714V33.0306H275.903ZM288.985 44.8045V47.2678H281.094V44.8045H288.985ZM279.257 33.0306H282.138V59H279.257V33.0306ZM287.733 33.0306H290.613V59H287.733V33.0306Z" fill="white"/>
<path d="M163.692 77.3849V72.333C163.692 72.0268 163.609 71.8042 163.442 71.665C163.275 71.498 163.011 71.4145 162.649 71.4145H161.271V66.1955H164.861C167.088 66.1955 168.661 66.6687 169.579 67.6151C170.526 68.5615 170.999 69.814 170.999 71.3727V77.3849H163.692ZM163.692 86.8625V76.8422H170.999V87.8228C170.999 89.3815 170.526 90.6341 169.579 91.5804C168.661 92.5268 167.088 93 164.861 93H161.271V87.7811H162.649C163.011 87.7811 163.275 87.7115 163.442 87.5723C163.609 87.4053 163.692 87.1687 163.692 86.8625ZM159.851 72.333V77.3849H152.545V71.3727C152.545 69.814 153.004 68.5615 153.923 67.6151C154.869 66.6687 156.456 66.1955 158.682 66.1955H162.273V71.4145H160.895C160.533 71.4145 160.269 71.498 160.102 71.665C159.935 71.8042 159.851 72.0268 159.851 72.333ZM159.851 76.8422V86.8625C159.851 87.1687 159.935 87.4053 160.102 87.5723C160.269 87.7115 160.533 87.7811 160.895 87.7811H162.273V93H158.682C156.456 93 154.869 92.5268 153.923 91.5804C153.004 90.6341 152.545 89.3815 152.545 87.8228V76.8422H159.851ZM186.264 77.5937V72.333C186.264 72.0268 186.181 71.8042 186.014 71.665C185.847 71.498 185.582 71.4145 185.221 71.4145H177.455V66.1955H187.433C189.66 66.1955 191.233 66.6687 192.151 67.6151C193.098 68.5615 193.571 69.814 193.571 71.3727V78.3035C193.571 79.8622 193.098 81.1147 192.151 82.0611C191.233 83.0075 189.66 83.4807 187.433 83.4807H177.455V78.5122H185.221C185.582 78.5122 185.847 78.4427 186.014 78.3035C186.181 78.1365 186.264 77.8999 186.264 77.5937ZM175.033 66.1955H182.34V93H175.033V66.1955ZM181.505 80.5581H188.644L194.907 93H187.058L181.505 80.5581ZM197.315 66.1955H209.59C211.816 66.1955 213.389 66.6687 214.308 67.6151C215.254 68.5615 215.727 69.814 215.727 71.3727V74.7964C215.727 75.8819 215.588 76.8283 215.31 77.6355C215.059 78.4426 214.53 79.0689 213.723 79.5143C214.53 79.8761 215.059 80.4189 215.31 81.1426C215.588 81.8663 215.727 82.757 215.727 83.8147V87.8228C215.727 89.3815 215.254 90.6341 214.308 91.5804C213.389 92.5268 211.816 93 209.59 93H197.315V66.1955ZM208.546 87.28V82.8961C208.546 82.59 208.462 82.3673 208.295 82.2281C208.128 82.0611 207.864 81.9776 207.502 81.9776H204.496V88.1986H207.502C207.864 88.1986 208.128 88.129 208.295 87.9898C208.462 87.8228 208.546 87.5862 208.546 87.28ZM208.546 76.2577V71.9155C208.546 71.6093 208.462 71.3866 208.295 71.2475C208.128 71.0805 207.864 70.997 207.502 70.997H204.496V77.1762H207.502C207.864 77.1762 208.128 77.1066 208.295 76.9674C208.462 76.8004 208.546 76.5638 208.546 76.2577ZM219.678 66.1955H226.984V93H219.678V66.1955ZM231.155 66.1955H243.43C245.656 66.1955 247.229 66.6687 248.148 67.6151C249.094 68.5615 249.567 69.814 249.567 71.3727V74.7964C249.567 75.8819 249.428 76.8283 249.15 77.6355C248.899 78.4426 248.37 79.0689 247.563 79.5143C248.37 79.8761 248.899 80.4189 249.15 81.1426C249.428 81.8663 249.567 82.757 249.567 83.8147V87.8228C249.567 89.3815 249.094 90.6341 248.148 91.5804C247.229 92.5268 245.656 93 243.43 93H231.155V66.1955ZM242.386 87.28V82.8961C242.386 82.59 242.302 82.3673 242.135 82.2281C241.968 82.0611 241.704 81.9776 241.342 81.9776H238.336V88.1986H241.342C241.704 88.1986 241.968 88.129 242.135 87.9898C242.302 87.8228 242.386 87.5862 242.386 87.28ZM242.386 76.2577V71.9155C242.386 71.6093 242.302 71.3866 242.135 71.2475C241.968 71.0805 241.704 70.997 241.342 70.997H238.336V77.1762H241.342C241.704 77.1762 241.968 77.1066 242.135 76.9674C242.302 76.8004 242.386 76.5638 242.386 76.2577ZM264.54 77.3849V72.333C264.54 72.0268 264.457 71.8042 264.29 71.665C264.123 71.498 263.858 71.4145 263.496 71.4145H262.119V66.1955H265.709C267.936 66.1955 269.509 66.6687 270.427 67.6151C271.374 68.5615 271.847 69.814 271.847 71.3727V77.3849H264.54ZM264.54 86.8625V76.8422H271.847V87.8228C271.847 89.3815 271.374 90.6341 270.427 91.5804C269.509 92.5268 267.936 93 265.709 93H262.119V87.7811H263.496C263.858 87.7811 264.123 87.7115 264.29 87.5723C264.457 87.4053 264.54 87.1687 264.54 86.8625ZM260.699 72.333V77.3849H253.393V71.3727C253.393 69.814 253.852 68.5615 254.77 67.6151C255.717 66.6687 257.303 66.1955 259.53 66.1955H263.121V71.4145H261.743C261.381 71.4145 261.117 71.498 260.95 71.665C260.783 71.8042 260.699 72.0268 260.699 72.333ZM260.699 76.8422V86.8625C260.699 87.1687 260.783 87.4053 260.95 87.5723C261.117 87.7115 261.381 87.7811 261.743 87.7811H263.121V93H259.53C257.303 93 255.717 92.5268 254.77 91.5804C253.852 90.6341 253.393 89.3815 253.393 87.8228V76.8422H260.699ZM279.555 68.7006H286.862V93H279.555V68.7006ZM292.039 66.1955V71.4145H274.42V66.1955H292.039Z" fill="#FFCC00"/>
</svg>
