<svg width="47" height="47" viewBox="0 0 47 47" fill="none" xmlns="http://www.w3.org/2000/svg">
<path d="M36.9236 14.4033C38.0341 15.1386 38.3342 16.6285 37.5939 17.7314L30.2379 28.6905C28.1795 31.7567 23.553 31.4707 21.8931 28.1749L20.7839 25.9718L13.428 36.9309L13.2816 37.1278C12.5028 38.0672 11.1182 38.286 10.0768 37.5965C9.03582 36.9073 8.70636 35.5545 9.27916 34.4794L9.4066 34.2685L16.7626 23.3094C18.821 20.2431 23.4475 20.5292 25.1074 23.825L26.2165 26.0281L33.5725 15.0689C34.3128 13.9661 35.8132 13.6681 36.9236 14.4033Z" fill="#FFCC00"/>
<path d="M42.3 11.75C42.3 9.46797 42.2947 7.99232 42.1485 6.90543C42.0115 5.88659 41.7904 5.56735 41.6115 5.38849C41.4327 5.20963 41.1134 4.98852 40.0946 4.85148C39.0077 4.70535 37.532 4.70001 35.25 4.70001H11.75C9.46797 4.70001 7.99232 4.70535 6.90543 4.85148C5.88659 4.98852 5.56735 5.20963 5.38849 5.38849C5.20963 5.56735 4.98852 5.88659 4.85148 6.90543C4.70535 7.99232 4.70001 9.46797 4.70001 11.75V35.25C4.70001 37.532 4.70535 39.0077 4.85148 40.0946C4.98852 41.1134 5.20963 41.4327 5.38849 41.6115C5.56735 41.7904 5.88659 42.0115 6.90543 42.1485C7.99232 42.2947 9.46797 42.3 11.75 42.3H35.25C37.532 42.3 39.0077 42.2947 40.0946 42.1485C41.1134 42.0115 41.4327 41.7904 41.6115 41.6115C41.7904 41.4327 42.0115 41.1134 42.1485 40.0946C42.2947 39.0077 42.3 37.532 42.3 35.25V11.75ZM47 35.25C47 37.3992 47.0052 39.2482 46.8072 40.7211C46.6001 42.2613 46.1321 43.737 44.9346 44.9346C43.737 46.1321 42.2613 46.6001 40.7211 46.8072C39.2482 47.0052 37.3992 47 35.25 47H11.75C9.60084 47 7.75178 47.0052 6.27892 46.8072C4.73872 46.6001 3.26296 46.1321 2.06544 44.9346C0.867927 43.737 0.399946 42.2613 0.192787 40.7211C-0.00523429 39.2482 1.3294e-05 37.3992 1.32941e-05 35.25V11.75C1.32941e-05 9.60084 -0.00523429 7.75178 0.192787 6.27892C0.399946 4.73872 0.867927 3.26296 2.06544 2.06544C3.26296 0.867927 4.73872 0.399946 6.27892 0.192787C7.75178 -0.00523429 9.60084 1.3294e-05 11.75 1.32941e-05H35.25C37.3992 1.32941e-05 39.2482 -0.00523429 40.7211 0.192787C42.2613 0.399946 43.737 0.867927 44.9346 2.06544C46.1321 3.26296 46.6001 4.73872 46.8072 6.27892C47.0052 7.75178 47 9.60084 47 11.75V35.25Z" fill="#FFCC00"/>
</svg>
