<svg width="121" height="121" viewBox="0 0 121 121" fill="none" xmlns="http://www.w3.org/2000/svg">
<path d="M18 90V30C18 23.3726 23.4365 18 30.1429 18H78.7143C92.1269 18 103 28.7452 103 42V90C103 96.2139 98.2204 101.322 92.0963 101.936L90.8571 102V42C90.8571 35.3726 85.4206 30 78.7143 30H30.1429V102L28.9037 101.936C23.1871 101.363 18.6448 96.8739 18.0652 91.2246L18 90ZM90.8571 90V102H30.1429V90H90.8571Z" fill="#FFCC00"/>
<path d="M48 0V24H36V0H48Z" fill="#FFCC00"/>
<path d="M48 96V121H36V96H48Z" fill="#FFCC00"/>
<path d="M85 96V121H73V96H85Z" fill="#FFCC00"/>
<path d="M97 72H121V84H97V72Z" fill="#FFCC00"/>
<path d="M1.43099e-07 72H24V84H0L1.43099e-07 72Z" fill="#FFCC00"/>
<path d="M1.43099e-07 36H24V48H0L1.43099e-07 36Z" fill="#FFCC00"/>
<path d="M79 0C84.5155 0 89.9766 1.08852 95.0723 3.19922C100.168 5.30991 104.801 8.39887 108.701 12.2988C112.601 16.1988 115.69 20.8322 117.801 25.9277C119.911 31.0234 121 36.4845 121 42H109C109 38.0608 108.222 34.1609 106.715 30.5215C105.207 26.8817 102.997 23.5748 100.211 20.7891C97.4252 18.0033 94.1183 15.7928 90.4785 14.2852C86.8391 12.7778 82.9392 12 79 12V0Z" fill="#FFCC00"/>
</svg>
