<svg width="35" height="27" viewBox="0 0 35 27" fill="none" xmlns="http://www.w3.org/2000/svg">
<path fill-rule="evenodd" clip-rule="evenodd" d="M23.3333 0C28.8331 0 31.5825 0.000437047 33.291 1.69503C34.9996 3.38963 35 6.11661 35 11.5714V15.4286C35 20.8834 34.9996 23.6104 33.291 25.305C31.5825 26.9996 28.8331 27 23.3333 27H11.6667C6.16695 27 3.41753 26.9996 1.70898 25.305C0.000440644 23.6104 0 20.8834 0 15.4286V11.5714C0 6.11661 0.000440644 3.38963 1.70898 1.69503C3.41753 0.000437047 6.16695 0 11.6667 0H23.3333ZM30.7845 6.64453C30.1888 5.7583 28.9816 5.51883 28.0881 6.10965L17.5 13.1101L6.91189 6.10965C6.01836 5.51883 4.81118 5.7583 4.21549 6.64453C3.61981 7.53077 3.86125 8.72809 4.75477 9.31892L15.3429 16.3194C16.6492 17.1831 18.3508 17.1831 19.6571 16.3194L30.2452 9.31892C31.1388 8.72809 31.3802 7.53077 30.7845 6.64453Z" fill="#FFCC00"/>
</svg>
