<svg width="34" height="34" viewBox="0 0 34 34" fill="none" xmlns="http://www.w3.org/2000/svg">
<path d="M17.1993 8.84081C19.2398 12.031 21.968 14.7415 25.1946 16.7627L11.4869 30.4729C10.6412 31.3187 10.2169 31.7416 9.69746 32.0196C9.17828 32.2973 8.59204 32.4148 7.4203 32.6492L1.29798 33.8733C0.636217 34.0057 0.304884 34.0713 0.116651 33.883C-0.0709494 33.6948 -0.00576485 33.3643 0.126366 32.7036L1.35238 26.581C1.58694 25.4081 1.70389 24.8213 1.98191 24.3018C2.25993 23.7824 2.68295 23.3598 3.52852 22.5141L17.1993 8.84081Z" fill="#FFCC00"/>
<path d="M25.9213 0.413747C27.0346 -0.137938 28.3423 -0.137893 29.4556 0.413747C30.0407 0.703718 30.5838 1.24667 31.6686 2.33155C32.753 3.41598 33.2964 3.95775 33.5863 4.54276C34.138 5.65595 34.1378 6.96394 33.5863 8.07719C33.2964 8.66235 32.7535 9.20545 31.6686 10.2903L28.0936 13.8636C24.7658 11.9707 22.0098 9.23214 20.0924 5.94759L23.7102 2.33155C24.7946 1.2471 25.3364 0.703803 25.9213 0.413747Z" fill="#FFCC00"/>
</svg>
