<svg width="111" height="112" viewBox="0 0 111 112" fill="none" xmlns="http://www.w3.org/2000/svg">
<path d="M51.2402 0.0790579C52.2391 0.0265737 53.2449 0 54.2569 0C85.3426 0 110.543 25.0721 110.543 56C110.543 86.9279 85.3426 112 54.2569 112C43.5878 112 33.612 109.047 25.1104 103.917C54.7935 102.357 78.3793 77.9167 78.3793 47.9957C78.3793 27.6827 67.509 9.89578 51.2402 0.0790579Z" fill="#FFCC00"/>
<path d="M18.6455 51.6792C19.4606 54.1121 19.8682 55.3286 20.2758 55.8592C21.885 57.9537 25.055 57.9537 26.6641 55.8592C27.0718 55.3286 27.4794 54.1121 28.2945 51.6792C28.952 49.7166 29.2808 48.7353 29.7061 47.8471C31.2929 44.5329 33.977 41.8624 37.3081 40.2836C38.2008 39.8605 39.1872 39.5334 41.1598 38.8792C43.6051 38.0682 44.8278 37.6627 45.3611 37.2571C47.4663 35.6561 47.4663 32.5022 45.3611 30.9012C44.8278 30.4956 43.6051 30.0901 41.1598 29.2792C39.1872 28.625 38.2008 28.2979 37.3081 27.8747C33.977 26.2959 31.2929 23.6255 29.7061 20.3113C29.2808 19.4231 28.952 18.4418 28.2945 16.4792C27.4794 14.0462 27.0718 12.8298 26.6641 12.2991C25.055 10.2047 21.885 10.2047 20.2758 12.2991C19.8682 12.8298 19.4606 14.0462 18.6455 16.4792C17.988 18.4418 17.6592 19.4231 17.2339 20.3113C15.647 23.6255 12.963 26.2959 9.63186 27.8747C8.73912 28.2979 7.75282 28.625 5.78022 29.2792C3.33488 30.0901 2.1122 30.4956 1.57888 30.9012C-0.526293 32.5022 -0.526293 35.6561 1.57888 37.2571C2.1122 37.6627 3.33488 38.0682 5.78022 38.8792C7.75282 39.5334 8.73912 39.8605 9.63186 40.2836C12.963 41.8624 15.647 44.5329 17.2339 47.8471C17.6592 48.7353 17.988 49.7166 18.6455 51.6792Z" fill="#FFCC00"/>
</svg>
