<svg width="41" height="48" viewBox="0 0 41 48" fill="none" xmlns="http://www.w3.org/2000/svg">
<path d="M27.3333 14C33.7759 14 36.9966 14.0005 38.998 15.9921C40.9995 17.9838 41 21.1889 41 27.6V29.8666C41 38.4148 40.9993 42.6881 38.3307 45.3437C35.6621 47.9993 31.3678 48 22.7778 48H18.2222C9.63218 48 5.33785 47.9993 2.66927 45.3437C0.000688314 42.6881 0 38.4148 0 29.8666V27.6C0 21.1889 0.000516176 17.9838 2.00195 15.9921C4.00339 14.0005 7.22414 14 13.6667 14H27.3333ZM20.5 23.0666C16.7261 23.0666 13.6667 26.1111 13.6667 29.8666C13.6667 32.8263 15.5697 35.3361 18.2222 36.2704V41.2H22.7778V36.2704C25.4303 35.3361 27.3333 32.8263 27.3333 29.8666C27.3333 26.1111 24.2739 23.0666 20.5 23.0666ZM20.5 27.6C21.758 27.6 22.7778 28.6148 22.7778 29.8666C22.7778 31.1185 21.758 32.1333 20.5 32.1333C19.242 32.1333 18.2222 31.1185 18.2222 29.8666C18.2222 28.6148 19.242 27.6 20.5 27.6Z" fill="#FFCC00"/>
<path d="M8.87903 4.06428C13.8477 -0.238732 21.0792 -0.689036 26.5435 2.964L27.3963 3.5334C31.5133 6.28635 33.6989 11.1283 33.0671 16.013L32.9968 16.4861L32.9464 16.7113C32.643 17.8257 31.5388 18.5517 30.3751 18.3578C29.212 18.1638 28.4039 17.1197 28.4776 15.9677L28.5035 15.7361L28.5832 15.122C28.8667 12.0535 27.4518 9.0518 24.8629 7.32077L24.0131 6.75056C20.2546 4.23751 15.2793 4.54738 11.8614 7.50706L9.85141 9.249C8.90064 10.0724 7.46093 9.96967 6.63732 9.01921C5.81392 8.06843 5.91664 6.62873 6.86711 5.80511L8.87903 4.06428Z" fill="#FFCC00"/>
</svg>
