<svg width="75" height="75" viewBox="0 0 75 75" fill="none" xmlns="http://www.w3.org/2000/svg">
<circle cx="37.5" cy="28.125" r="12.5" fill="#FFCC00"/>
<circle cx="53.125" cy="28.125" r="9.375" fill="#FFCC00"/>
<circle cx="21.875" cy="28.125" r="9.375" fill="#FFCC00"/>
<path d="M53.126 40.625C62.298 40.625 64.877 51.6129 65.4707 55.1602C65.5684 55.7437 65.1121 56.25 64.5205 56.25H54.8994C53.6397 51.5322 51.2054 46.1808 46.4941 43.124C48.1884 41.6276 50.3563 40.625 53.126 40.625Z" fill="#FFCC00"/>
<path d="M21.876 40.625C24.6454 40.625 26.8127 41.6278 28.5068 43.124C23.7959 46.1809 21.3612 51.5324 20.1016 56.25H10.4805C9.88904 56.2498 9.43362 55.7435 9.53125 55.1602C10.125 51.6129 12.7039 40.625 21.876 40.625Z" fill="#FFCC00"/>
<path d="M37.5 43.75C50.9497 43.75 52.8221 57.6426 53.0828 61.5109C53.12 62.0619 52.6773 62.5 52.125 62.5H22.875C22.3227 62.5 21.88 62.0619 21.9172 61.5109C22.1779 57.6426 24.0503 43.75 37.5 43.75Z" fill="#FFCC00"/>
</svg>
