<svg width="35" height="36" viewBox="0 0 35 36" fill="none" xmlns="http://www.w3.org/2000/svg">
<path d="M34.1377 33.2826C34.7273 33.1597 35.0777 32.5456 34.829 31.997C33.6483 29.3928 31.5186 27.1022 28.6859 25.4117C25.4768 23.4964 21.5449 22.4583 17.4999 22.4583C13.455 22.4583 9.52302 23.4964 6.31393 25.4117C3.48124 27.1022 1.35151 29.3928 0.170833 31.997C-0.0778627 32.5455 0.272557 33.1597 0.862171 33.2826L9.33905 35.0492C14.7218 36.171 20.278 36.171 25.6608 35.0492L34.1377 33.2826Z" fill="#FFCC00"/>
<path d="M27.7083 10.2083C27.7083 15.8462 23.1379 20.4167 17.5 20.4167C11.8621 20.4167 7.29164 15.8462 7.29164 10.2083C7.29164 4.57043 11.8621 0 17.5 0C23.1379 0 27.7083 4.57043 27.7083 10.2083Z" fill="#FFCC00"/>
</svg>
