<svg width="117" height="117" viewBox="0 0 117 117" fill="none" xmlns="http://www.w3.org/2000/svg">
<path d="M52 32.5V6.5C52 2.91015 54.9101 0 58.5 0C62.0899 0 65 2.91015 65 6.5V32.5C65 36.0899 62.0899 39 58.5 39C54.9101 39 52 36.0899 52 32.5Z" fill="#FFCC00"/>
<path d="M52 78C55.5899 78 58.5 80.9101 58.5 84.5C58.5 88.0899 55.5899 91 52 91H32.5C28.9101 91 26 88.0899 26 84.5C26 80.9101 28.9101 78 32.5 78H52Z" fill="#FFCC00"/>
<path d="M95.2783 16.5928C94.1771 14.3911 91.9256 13 89.4639 13H27.5361C25.0744 13 22.8228 14.3911 21.7217 16.5928L13 34.0361V100.75C13 102.545 14.4551 104 16.25 104H100.75C102.545 104 104 102.545 104 100.75V34.0361L95.2783 16.5928ZM117 100.75C117 109.725 109.725 117 100.75 117H16.25C7.27537 117 0 109.725 0 100.75V34.0361C0 32.0185 0.468975 30.0264 1.37109 28.2217L10.0928 10.7783C13.396 4.17242 20.1503 0 27.5361 0H89.4639C96.8497 0 103.604 4.17242 106.907 10.7783L115.629 28.2217C116.531 30.0264 117 32.0185 117 34.0361V100.75Z" fill="#FFCC00"/>
<path d="M104 26C107.59 26 110.5 28.9101 110.5 32.5C110.5 36.0899 107.59 39 104 39H13C9.41015 39 6.5 36.0899 6.5 32.5C6.5 28.9101 9.41015 26 13 26H104Z" fill="#FFCC00"/>
</svg>
