<svg width="27" height="27" viewBox="0 0 27 27" fill="none" xmlns="http://www.w3.org/2000/svg">
<path fill-rule="evenodd" clip-rule="evenodd" d="M13.5 0C20.9558 0 27 6.04416 27 13.5V20.25C27 22.3467 26.9998 23.3957 26.6572 24.2227C26.2005 25.3248 25.3248 26.2005 24.2227 26.6572C23.3957 26.9998 22.3467 27 20.25 27H13.5C6.04416 27 0 20.9558 0 13.5C0 6.04416 6.04416 0 13.5 0ZM13.5 16.5C12.6716 16.5 12 17.1716 12 18C12 18.8284 12.6716 19.5 13.5 19.5H18C18.8284 19.5 19.5 18.8284 19.5 18C19.5 17.1716 18.8284 16.5 18 16.5H13.5ZM9 10.5C8.17157 10.5 7.5 11.1716 7.5 12C7.5 12.8284 8.17157 13.5 9 13.5H18C18.8284 13.5 19.5 12.8284 19.5 12C19.5 11.1716 18.8284 10.5 18 10.5H9Z" fill="#FFCC00"/>
</svg>
