<svg width="46" height="47" viewBox="0 0 46 47" fill="none" xmlns="http://www.w3.org/2000/svg">
<path d="M46 23.5C46 15.6843 43.8621 8.00591 39.7998 1.23731C39.0898 0.0543917 37.5164 -0.351144 36.2865 0.331436C35.0566 1.01451 34.6347 2.52782 35.3448 3.71094C38.956 9.72756 40.857 16.5526 40.857 23.5C40.857 30.4474 38.956 37.2724 35.3448 43.2891C34.6347 44.4722 35.0566 45.9855 36.2865 46.6686C37.5164 47.3511 39.0898 46.9456 39.7998 45.7627C43.8621 38.9941 46 31.3157 46 23.5Z" fill="#FFCC00"/>
<path d="M34 23.5C34 18.1214 32.5025 12.837 29.6563 8.17897C28.9676 7.05182 27.4412 6.66543 26.2481 7.31578C25.0549 7.96667 24.6456 9.40868 25.3345 10.5361C27.7429 14.4776 29.0107 18.9487 29.0107 23.5C29.0107 28.0513 27.7429 32.5224 25.3345 36.4639C24.6456 37.5913 25.0549 39.0333 26.2481 39.6842C27.4412 40.3346 28.9676 39.9482 29.6563 38.821C32.5025 34.163 34 28.8786 34 23.5Z" fill="#FFCC00"/>
<path d="M22 24C22 20.2086 21.0517 16.484 19.2516 13.2005L19.1248 12.9943C18.4491 12.008 17.16 11.7005 16.1383 12.3217C15.0488 12.9846 14.6768 14.4528 15.306 15.6004C16.7059 18.1541 17.4424 21.0513 17.4424 24C17.4424 26.9487 16.7059 29.8459 15.306 32.3996C14.6768 33.5472 15.0488 35.0154 16.1383 35.6783C17.16 36.2995 18.4491 35.992 19.1248 35.0057L19.2516 34.7995L19.5788 34.1784C21.1661 31.0498 22 27.5545 22 24Z" fill="#FFCC00"/>
<path d="M0 24C0 20.2086 0.948305 16.484 2.74837 13.2005L2.87522 12.9943C3.55091 12.008 4.84002 11.7005 5.86171 12.3217C6.95118 12.9846 7.32317 14.4528 6.69402 15.6004C5.29408 18.1541 4.55763 21.0513 4.55763 24C4.55763 26.9487 5.29408 29.8459 6.69402 32.3996C7.32317 33.5472 6.95118 35.0154 5.86171 35.6783C4.84002 36.2995 3.5509 35.992 2.87522 35.0057L2.74837 34.7995L2.42124 34.1784C0.833856 31.0498 1.07286e-07 27.5545 0 24Z" fill="#FFCC00"/>
<path d="M11 39C8.4724 39 5.98933 37.9162 3.80036 35.859L3.66287 35.714C3.00534 34.9418 2.80031 33.4685 3.21445 32.3009C3.65638 31.0558 4.63519 30.6307 5.40028 31.3497C7.10275 32.9496 9.03417 33.7913 11 33.7913C12.9658 33.7913 14.8972 32.9496 16.5997 31.3497C17.3648 30.6307 18.3436 31.0558 18.7855 32.3009C19.1997 33.4685 18.9947 34.9418 18.3371 35.714L18.1996 35.859L17.7856 36.2329C15.6999 38.047 13.3697 39 11 39Z" fill="#FFCC00"/>
<path d="M11 9C13.5276 9 16.0107 10.0838 18.1996 12.141L18.3371 12.286C18.9947 13.0582 19.1997 14.5315 18.7855 15.6991C18.3436 16.9442 17.3648 17.3693 16.5997 16.6503C14.8972 15.0504 12.9658 14.2087 11 14.2087C9.03417 14.2087 7.10276 15.0504 5.40028 16.6503C4.63519 17.3693 3.65638 16.9442 3.21445 15.6991C2.80031 14.5314 3.00534 13.0582 3.66287 12.286L3.80036 12.141L4.2144 11.7671C6.30014 9.95298 8.63033 9 11 9Z" fill="#FFCC00"/>
</svg>
